<?xml version="1.0" encoding="utf-8"?>
<!-- Generator: Adobe Illustrator 16.0.0, SVG Export Plug-In . SVG Version: 6.00 Build 0)  -->
<!DOCTYPE svg PUBLIC "-//W3C//DTD SVG 1.1//EN" "http://www.w3.org/Graphics/SVG/1.1/DTD/svg11.dtd">
<svg version="1.1" id="Layer_1" xmlns="http://www.w3.org/2000/svg" xmlns:xlink="http://www.w3.org/1999/xlink" x="0px" y="0px"
	 width="100%" height="auto" viewBox="0 0 1600 520" enable-background="new 0 0 1600 520" xml:space="preserve">

<!-- Flow -->
<path name="flowPcsToBattery" fill="{{flowPcsToBattery.fill}}" opacity="{{flowPcsToBattery.opacity}}" d="M1070.578,399.503H761.177c-1.934,0-3.5-1.567-3.5-3.5V317.53h7v74.973h305.901V399.503z"/>
<path name="flowPcsToFactory" fill="{{flowPcsToFactory.fill}}"  opacity="{{flowPcsToFactory.opacity}}" d="M155.494,409.037h-7V242.338c0-1.933,1.566-3.5,3.5-3.5h540.519v7H155.494V409.037z"/>

<rect name="flowPvToFactory1" x="674.777" y="101.037" fill="{{flowPvToFactory1.fill}}" opacity="{{flowPvToFactory1.opacity}}" width="416.941" height="7"/>
<path name="flowPvToFactory2" fill="{{flowPvToFactory2.fill}}" opacity="{{flowPvToFactory2.opacity}}" d="M494.61,242.338h-7V104.537c0-1.933,1.567-3.5,3.5-3.5h124.688v7H494.61V242.338z"/>
<path name="flowPvToFactory3" fill="{{flowPvToFactory3.fill}}" opacity="{{flowPvToFactory3.opacity}}" d="M155.494,409.037h-7V242.338c0-1.933,1.566-3.5,3.5-3.5h342.610v7H155.494V409.037z"/>


<rect name="flowGridToFactory" x="148.494" y="152.679" fill="{{flowGridToFactory.fill}}" opacity="{{flowGridToFactory.opacity}}" width="7" height="256.358"/>

<!-- 전력 흐름 화살표 -->

<!-- grid Arrow -->
<linearGradient id="gridArrow1" gradientUnits="userSpaceOnUse" x1="233.4114" y1="-632.3564" x2="233.4114" y2="-618.6265" gradientTransform="matrix(1 0 0 -1 -81.4189 -463.9473)">
	<stop  offset="0" style="stop-color:#03529F"/>
	<stop  offset="0.1531" style="stop-color:#0755A3"/>
	<stop  offset="0.3331" style="stop-color:#0265B0"/>
	<stop  offset="0.5604" style="stop-color:#007CB7"/>
	<stop  offset="0.7841" style="stop-color:#1096D4"/>
	<stop  offset="1" style="stop-color:#18A1DB"/>
</linearGradient>
<path name="gridArrow1" fill="{{gridArrow1.fill}}" d="M151.125,167.807c0.478,0.703,1.259,0.846,1.733,0.131l7.543-11.439
	c0.477-0.707,0.161-1.82-0.7-1.82h-15.415c-0.863,0-1.18,1.113-0.7,1.82L151.125,167.807z">
	<animateMotion class="path1_1" ng-attr-path="{{gridArrow1.path}}" begin="0s" dur="3s" repeatCount="indefinite" />
</path>
<linearGradient id="gridArrow2" gradientUnits="userSpaceOnUse" x1="233.4114" y1="-703.1514" x2="233.4114" y2="-689.4214" gradientTransform="matrix(1 0 0 -1 -81.4189 -463.9473)">
	<stop  offset="0" style="stop-color:#03529F"/>
	<stop  offset="0.1531" style="stop-color:#0755A3"/>
	<stop  offset="0.3331" style="stop-color:#0265B0"/>
	<stop  offset="0.5604" style="stop-color:#007CB7"/>
	<stop  offset="0.7841" style="stop-color:#1096D4"/>
	<stop  offset="1" style="stop-color:#18A1DB"/>
</linearGradient>
<path name="gridArrow2" fill="{{gridArrow2.fill}}" d="M151.125,238.602c0.478,0.703,1.259,0.846,1.733,0.131l7.543-11.439
	c0.477-0.707,0.161-1.82-0.7-1.82h-15.415c-0.863,0-1.18,1.113-0.7,1.82L151.125,238.602z">
	<animateMotion class="path1_1" ng-attr-path="{{gridArrow2.path}}" begin="0s" dur="3s" repeatCount="indefinite" />
</path>
<linearGradient id="gridArrow3" gradientUnits="userSpaceOnUse" x1="357.2917" y1="84.2021" x2="357.2917" y2="97.9312" gradientTransform="matrix(0 -1 -1 0 260.2229 599.6311)">
	<stop  offset="0" style="stop-color:#03529F"/>
	<stop  offset="0.1531" style="stop-color:#0755A3"/>
	<stop  offset="0.3331" style="stop-color:#0265B0"/>
	<stop  offset="0.5604" style="stop-color:#007CB7"/>
	<stop  offset="0.7841" style="stop-color:#1096D4"/>
	<stop  offset="1" style="stop-color:#18A1DB"/>
</linearGradient>
<path name="gridArrow3" fill="{{gridArrow3.fill}}" d="M175.419,243.207c0.703-0.479,0.845-1.26,0.132-1.734l-11.439-7.543
	c-0.707-0.477-1.819-0.162-1.819,0.701v15.414c0,0.863,1.112,1.18,1.819,0.701L175.419,243.207z">
	<animateMotion class="path1_1" ng-attr-path="{{gridArrow3.path}}" begin="0s" dur="3s" repeatCount="indefinite" />
</path>
<linearGradient id="gridArrow4" gradientUnits="userSpaceOnUse" x1="357.2917" y1="84.2021" x2="357.2917" y2="97.9312" gradientTransform="matrix(0 -1 -1 0 260.2229 599.6311)">
	<stop  offset="0" style="stop-color:#03529F"/>
	<stop  offset="0.1531" style="stop-color:#0755A3"/>
	<stop  offset="0.3331" style="stop-color:#0265B0"/>
	<stop  offset="0.5604" style="stop-color:#007CB7"/>
	<stop  offset="0.7841" style="stop-color:#1096D4"/>
	<stop  offset="1" style="stop-color:#18A1DB"/>
</linearGradient>
<path name="gridArrow4" fill="{{gridArrow4.fill}}" d="M175.419,243.207c0.703-0.479,0.845-1.26,0.132-1.734l-11.439-7.543
	c-0.707-0.477-1.819-0.162-1.819,0.701v15.414c0,0.863,1.112,1.18,1.819,0.701L175.419,243.207z">
	<animateMotion class="path1_1" ng-attr-path="{{gridArrow4.path}}" begin="0s" dur="3s" repeatCount="indefinite" />
</path>
<linearGradient id="gridArrow5" gradientUnits="userSpaceOnUse" x1="357.2917" y1="84.2021" x2="357.2917" y2="97.9312" gradientTransform="matrix(0 -1 -1 0 260.2229 599.6311)">
	<stop  offset="0" style="stop-color:#03529F"/>
	<stop  offset="0.1531" style="stop-color:#0755A3"/>
	<stop  offset="0.3331" style="stop-color:#0265B0"/>
	<stop  offset="0.5604" style="stop-color:#007CB7"/>
	<stop  offset="0.7841" style="stop-color:#1096D4"/>
	<stop  offset="1" style="stop-color:#18A1DB"/>
</linearGradient>
<path name="gridArrow5" fill="{{gridArrow5.fill}}" d="M175.419,243.207c0.703-0.479,0.845-1.26,0.132-1.734l-11.439-7.543
	c-0.707-0.477-1.819-0.162-1.819,0.701v15.414c0,0.863,1.112,1.18,1.819,0.701L175.419,243.207z">
	<animateMotion class="path1_1" ng-attr-path="{{gridArrow5.path}}" begin="0s" dur="3s" repeatCount="indefinite" />
</path>
<linearGradient id="gridArrow6" gradientUnits="userSpaceOnUse" x1="244.0315" y1="-498.542" x2="244.0315" y2="-484.813" gradientTransform="matrix(1 0 0 -1 517.1445 -164.2793)">
	<stop  offset="0" style="stop-color:#03529F"/>
	<stop  offset="0.1531" style="stop-color:#0755A3"/>
	<stop  offset="0.3331" style="stop-color:#0265B0"/>
	<stop  offset="0.5604" style="stop-color:#007CB7"/>
	<stop  offset="0.7841" style="stop-color:#1096D4"/>
	<stop  offset="1" style="stop-color:#18A1DB"/>
</linearGradient>
<path name="gridArrow6" fill="{{gridArrow6.fill}}" d="M760.309,333.662c0.477,0.703,1.258,0.844,1.734,0.131l7.543-11.439
	c0.475-0.706,0.159-1.819-0.701-1.819h-15.416c-0.863,0-1.178,1.113-0.699,1.819L760.309,333.662z">
	<animateMotion class="path1_1" ng-attr-path="{{gridArrow6.path}}" begin="0s" dur="3s" repeatCount="indefinite" />
</path>
<linearGradient id="gridArrow7" gradientUnits="userSpaceOnUse" x1="244.0315" y1="-508.8965" x2="244.0315" y2="-495.1675" gradientTransform="matrix(1 0 0 -1 517.1445 -119.7559)">
	<stop  offset="0" style="stop-color:#03529F"/>
	<stop  offset="0.1531" style="stop-color:#0755A3"/>
	<stop  offset="0.3331" style="stop-color:#0265B0"/>
	<stop  offset="0.5604" style="stop-color:#007CB7"/>
	<stop  offset="0.7841" style="stop-color:#1096D4"/>
	<stop  offset="1" style="stop-color:#18A1DB"/>
</linearGradient>
<path name="gridArrow7" fill="{{gridArrow7.fill}}" d="M760.309,388.54c0.477,0.703,1.258,0.844,1.734,0.131l7.543-11.438
	c0.475-0.707,0.159-1.82-0.701-1.82h-15.416c-0.863,0-1.178,1.113-0.699,1.82L760.309,388.54z">
	<animateMotion class="path1_1" ng-attr-path="{{gridArrow7.path}}" begin="0s" dur="3s" repeatCount="indefinite" />
</path>
<linearGradient id="gridArrow8" gradientUnits="userSpaceOnUse" x1="510.9568" y1="-95.478" x2="510.9568" y2="-81.7495" gradientTransform="matrix(0 -1 -1 0 686.426 906.9592)">
	<stop  offset="0" style="stop-color:#03529F"/>
	<stop  offset="0.1531" style="stop-color:#0755A3"/>
	<stop  offset="0.3331" style="stop-color:#0265B0"/>
	<stop  offset="0.5604" style="stop-color:#007CB7"/>
	<stop  offset="0.7841" style="stop-color:#1096D4"/>
	<stop  offset="1" style="stop-color:#18A1DB"/>
</linearGradient>
<path name="gridArrow8" fill="{{gridArrow8.fill}}" d="M781.302,396.871c0.703-0.479,0.846-1.26,0.133-1.734l-11.439-7.543
	c-0.707-0.477-1.819-0.162-1.819,0.701v15.414c0,0.863,1.112,1.18,1.819,0.701L781.302,396.871z">
	<animateMotion class="path1_1" ng-attr-path="{{gridArrow8.path}}" begin="0s" dur="3s" repeatCount="indefinite" />
</path>
<linearGradient id="gridArrow9" gradientUnits="userSpaceOnUse" x1="510.9568" y1="174.522" x2="510.9568" y2="188.2505" gradientTransform="matrix(0 -1 -1 0 1226.426 906.9592)">
	<stop  offset="0" style="stop-color:#03529F"/>
	<stop  offset="0.1531" style="stop-color:#0755A3"/>
	<stop  offset="0.3331" style="stop-color:#0265B0"/>
	<stop  offset="0.5604" style="stop-color:#007CB7"/>
	<stop  offset="0.7841" style="stop-color:#1096D4"/>
	<stop  offset="1" style="stop-color:#18A1DB"/>
</linearGradient>
<path name="gridArrow9" fill="{{gridArrow9.fill}}" d="M1051.302,396.871c0.703-0.479,0.846-1.26,0.133-1.734l-11.438-7.543
	c-0.707-0.477-1.82-0.162-1.82,0.701v15.414c0,0.863,1.113,1.18,1.82,0.701L1051.302,396.871z">
	<animateMotion class="path1_1" ng-attr-path="{{gridArrow9.path}}" begin="0s" dur="3s" repeatCount="indefinite" />
</path>


<!-- battery Arrow -->
<linearGradient id="batteryArrow1" gradientUnits="userSpaceOnUse" x1="586.4377" y1="-584.6909" x2="586.4377" y2="-570.9624" gradientTransform="matrix(0 1 1 0 1622.8674 -190.4348)">
	<stop  offset="0" style="stop-color:#0F773C"/>
	<stop  offset="0.2696" style="stop-color:#0E9C49"/>
	<stop  offset="0.5208" style="stop-color:#21B14B"/>
	<stop  offset="0.6841" style="stop-color:#42B549"/>
	<stop  offset="0.8449" style="stop-color:#4EB648"/>
	<stop  offset="1" style="stop-color:#51B748"/>
</linearGradient>
<path name="batteryArrow1" fill="{{batteryArrow1.fill}}" d="M1038.779,395.135c-0.703,0.479-0.846,1.26-0.133,1.734l11.438,7.543
	c0.707,0.477,1.82,0.162,1.82-0.701v-15.414c0-0.863-1.113-1.18-1.82-0.701L1038.779,395.135z">
	<animateMotion class="path1_1" ng-attr-path="{{batteryArrow1.path}}" begin="0s" dur="3s" repeatCount="indefinite" />
</path>
<linearGradient id="batteryArrow2" gradientUnits="userSpaceOnUse" x1="586.4377" y1="-584.6909" x2="586.4377" y2="-570.9624" gradientTransform="matrix(0 1 1 0 1622.8674 -190.4348)">
	<stop  offset="0" style="stop-color:#0F773C"/>
	<stop  offset="0.2696" style="stop-color:#0E9C49"/>
	<stop  offset="0.5208" style="stop-color:#21B14B"/>
	<stop  offset="0.6841" style="stop-color:#42B549"/>
	<stop  offset="0.8449" style="stop-color:#4EB648"/>
	<stop  offset="1" style="stop-color:#51B748"/>
</linearGradient>
<path name="batteryArrow2" fill="{{batteryArrow2.fill}}" d="M1038.779,395.135c-0.703,0.479-0.846,1.26-0.133,1.734l11.438,7.543
	c0.707,0.477,1.82,0.162,1.82-0.701v-15.414c0-0.863-1.113-1.18-1.82-0.701L1038.779,395.135z">
	<animateMotion class="path1_1" ng-attr-path="{{batteryArrow2.path}}" begin="0s" dur="3s" repeatCount="indefinite" />
</path>
<linearGradient id="batteryArrow3" gradientUnits="userSpaceOnUse" x1="1003.2444" y1="-433.4185" x2="1003.2444" y2="-419.689" gradientTransform="matrix(-1 0 0 1 1764.4204 808.8262)">
	<stop  offset="0" style="stop-color:#0F773C"/>
	<stop  offset="0.2696" style="stop-color:#0E9C49"/>
	<stop  offset="0.5208" style="stop-color:#21B14B"/>
	<stop  offset="0.6841" style="stop-color:#42B549"/>
	<stop  offset="0.8449" style="stop-color:#4EB648"/>
	<stop  offset="1" style="stop-color:#51B748"/>
</linearGradient>
<path name="batteryArrow3" fill="{{batteryArrow3.fill}}" d="M762.045,376.01c-0.478-0.703-1.259-0.844-1.734-0.131l-7.543,11.439
	c-0.475,0.707-0.16,1.819,0.701,1.819h15.416c0.862,0,1.178-1.112,0.698-1.819L762.045,376.01z">
	<animateMotion class="path1_1" ng-attr-path="{{batteryArrow3.path}}" begin="0s" dur="3s" repeatCount="indefinite" />
</path>
<linearGradient id="batteryArrow4" gradientUnits="userSpaceOnUse" x1="1003.2444" y1="-433.4185" x2="1003.2444" y2="-419.689" gradientTransform="matrix(-1 0 0 1 1764.4204 808.8262)">
	<stop  offset="0" style="stop-color:#0F773C"/>
	<stop  offset="0.2696" style="stop-color:#0E9C49"/>
	<stop  offset="0.5208" style="stop-color:#21B14B"/>
	<stop  offset="0.6841" style="stop-color:#42B549"/>
	<stop  offset="0.8449" style="stop-color:#4EB648"/>
	<stop  offset="1" style="stop-color:#51B748"/>
</linearGradient>
<path name="batteryArrow4" fill="{{batteryArrow4.fill}}" d="M762.045,376.01c-0.478-0.703-1.259-0.844-1.734-0.131l-7.543,11.439
	c-0.475,0.707-0.16,1.819,0.701,1.819h15.416c0.862,0,1.178-1.112,0.698-1.819L762.045,376.01z">
	<animateMotion class="path1_1" ng-attr-path="{{batteryArrow4.path}}" begin="0s" dur="3s" repeatCount="indefinite" />
</path>
<linearGradient id="batteryArrow5" gradientUnits="userSpaceOnUse" x1="432.7722" y1="-947.0029" x2="432.7722" y2="-933.2739" gradientTransform="matrix(0 1 1 0 1622.8674 -190.4348)">
	<stop  offset="0" style="stop-color:#0F773C"/>
	<stop  offset="0.2696" style="stop-color:#0E9C49"/>
	<stop  offset="0.5208" style="stop-color:#21B14B"/>
	<stop  offset="0.6841" style="stop-color:#42B549"/>
	<stop  offset="0.8449" style="stop-color:#4EB648"/>
	<stop  offset="1" style="stop-color:#51B748"/>
</linearGradient>
<path name="batteryArrow5" fill="{{batteryArrow5.fill}}" d="M676.467,241.469c-0.703,0.479-0.847,1.26-0.133,1.734l11.438,7.543
	c0.707,0.477,1.82,0.162,1.82-0.701v-15.414c0-0.863-1.113-1.18-1.82-0.701L676.467,241.469z">
	<animateMotion class="path1_1" ng-attr-path="{{batteryArrow5.path}}" begin="0s" dur="3s" repeatCount="indefinite" />
</path>
<linearGradient id="batteryArrow6" gradientUnits="userSpaceOnUse" x1="432.7722" y1="-947.0029" x2="432.7722" y2="-933.2739" gradientTransform="matrix(0 1 1 0 1622.8674 -190.4348)">
	<stop  offset="0" style="stop-color:#0F773C"/>
	<stop  offset="0.2696" style="stop-color:#0E9C49"/>
	<stop  offset="0.5208" style="stop-color:#21B14B"/>
	<stop  offset="0.6841" style="stop-color:#42B549"/>
	<stop  offset="0.8449" style="stop-color:#4EB648"/>
	<stop  offset="1" style="stop-color:#51B748"/>
</linearGradient>
<path name="batteryArrow6" fill="{{batteryArrow6.fill}}" d="M676.467,241.469c-0.703,0.479-0.847,1.26-0.133,1.734l11.438,7.543
	c0.707,0.477,1.82,0.162,1.82-0.701v-15.414c0-0.863-1.113-1.18-1.82-0.701L676.467,241.469z">
	<animateMotion class="path1_1" ng-attr-path="{{batteryArrow6.path}}" begin="0s" dur="3s" repeatCount="indefinite" />
</path>
<linearGradient id="batteryArrow7" gradientUnits="userSpaceOnUse" x1="432.7722" y1="-947.0029" x2="432.7722" y2="-933.2739" gradientTransform="matrix(0 1 1 0 1622.8674 -190.4348)">
	<stop  offset="0" style="stop-color:#0F773C"/>
	<stop  offset="0.2696" style="stop-color:#0E9C49"/>
	<stop  offset="0.5208" style="stop-color:#21B14B"/>
	<stop  offset="0.6841" style="stop-color:#42B549"/>
	<stop  offset="0.8449" style="stop-color:#4EB648"/>
	<stop  offset="1" style="stop-color:#51B748"/>
</linearGradient>
<path name="batteryArrow7" fill="{{batteryArrow7.fill}}" d="M676.467,241.469c-0.703,0.479-0.847,1.26-0.133,1.734l11.438,7.543
	c0.707,0.477,1.82,0.162,1.82-0.701v-15.414c0-0.863-1.113-1.18-1.82-0.701L676.467,241.469z">
	<animateMotion class="path1_1" ng-attr-path="{{batteryArrow7.path}}" begin="0s" dur="3s" repeatCount="indefinite" />
</path>
<linearGradient id="batteryArrow8" gradientUnits="userSpaceOnUse" x1="233.4114" y1="-728.1509" x2="233.4114" y2="-714.4214" gradientTransform="matrix(1 0 0 -1 -81.4189 -463.9473)">
	<stop  offset="0" style="stop-color:#0F773C"/>
	<stop  offset="0.2696" style="stop-color:#0E9C49"/>
	<stop  offset="0.5208" style="stop-color:#21B14B"/>
	<stop  offset="0.6841" style="stop-color:#42B549"/>
	<stop  offset="0.8449" style="stop-color:#4EB648"/>
	<stop  offset="1" style="stop-color:#51B748"/>
</linearGradient>
<path name="batteryArrow8" fill="{{batteryArrow8.fill}}" d="M151.125,263.602c0.478,0.703,1.259,0.847,1.733,0.131l7.543-11.438
	c0.477-0.707,0.161-1.82-0.7-1.82h-15.415c-0.863,0-1.18,1.113-0.7,1.82L151.125,263.602z">
	<animateMotion class="path1_1" ng-attr-path="{{batteryArrow8.path}}" begin="0s" dur="3s" repeatCount="indefinite" />
</path>
<linearGradient id="batteryArrow9" gradientUnits="userSpaceOnUse" x1="233.4114" y1="-728.1509" x2="233.4114" y2="-714.4214" gradientTransform="matrix(1 0 0 -1 -81.4189 -463.9473)">
	<stop  offset="0" style="stop-color:#0F773C"/>
	<stop  offset="0.2696" style="stop-color:#0E9C49"/>
	<stop  offset="0.5208" style="stop-color:#21B14B"/>
	<stop  offset="0.6841" style="stop-color:#42B549"/>
	<stop  offset="0.8449" style="stop-color:#4EB648"/>
	<stop  offset="1" style="stop-color:#51B748"/>
</linearGradient>
<path name="batteryArrow9" fill="{{batteryArrow9.fill}}" d="M151.125,263.602c0.478,0.703,1.259,0.847,1.733,0.131l7.543-11.438
	c0.477-0.707,0.161-1.82-0.7-1.82h-15.415c-0.863,0-1.18,1.113-0.7,1.82L151.125,263.602z">
	<animateMotion class="path1_1" ng-attr-path="{{batteryArrow9.path}}" begin="0s" dur="3s" repeatCount="indefinite" />
</path>

<!-- pvArrow -->
<linearGradient id="pvArrow1" gradientUnits="userSpaceOnUse" x1="705.5818" y1="168.3735" x2="705.5818" y2="182.1021" gradientTransform="matrix(0 1 1 0 876.6682 -601.0461)">
	<stop  offset="0" style="stop-color:#EF4B23"/>
	<stop  offset="0.1047" style="stop-color:#F05822"/>
	<stop  offset="0.3331" style="stop-color:#F27321"/>
	<stop  offset="0.5604" style="stop-color:#F5851F"/>
	<stop  offset="0.7841" style="stop-color:#F6921E"/>
	<stop  offset="1" style="stop-color:#F7961D"/>
</linearGradient>
<path name="pvArrow1" fill="{{pvArrow1.fill}}" d="M1045.644,103.668c-0.703,0.479-0.846,1.26-0.133,1.734l11.44,7.543
	c0.707,0.477,1.818,0.162,1.818-0.701V96.83c0-0.863-1.111-1.18-1.818-0.701L1045.644,103.668z">
	<animateMotion class="path1_1" ng-attr-path="{{pvArrow1.path}}" begin="0s" dur="3s" repeatCount="indefinite" />
</path>
<linearGradient id="pvArrow2" gradientUnits="userSpaceOnUse" x1="705.5818" y1="168.3735" x2="705.5818" y2="182.1021" gradientTransform="matrix(0 1 1 0 876.6682 -601.0461)">
	<stop  offset="0" style="stop-color:#EF4B23"/>
	<stop  offset="0.1047" style="stop-color:#F05822"/>
	<stop  offset="0.3331" style="stop-color:#F27321"/>
	<stop  offset="0.5604" style="stop-color:#F5851F"/>
	<stop  offset="0.7841" style="stop-color:#F6921E"/>
	<stop  offset="1" style="stop-color:#F7961D"/>
</linearGradient>
<path name="pvArrow2" fill="{{pvArrow2.fill}}" d="M1045.644,103.668c-0.703,0.479-0.846,1.26-0.133,1.734l11.44,7.543
	c0.707,0.477,1.818,0.162,1.818-0.701V96.83c0-0.863-1.111-1.18-1.818-0.701L1045.644,103.668z">
	<animateMotion class="path1_1" ng-attr-path="{{pvArrow2.path}}" begin="0s" dur="3s" repeatCount="indefinite" />
</path>
<linearGradient id="pvArrow3" gradientUnits="userSpaceOnUse" x1="705.5818" y1="-277.6006" x2="705.5818" y2="-263.8716" gradientTransform="matrix(0 1 1 0 876.6682 -601.0461)">
	<stop  offset="0" style="stop-color:#EF4B23"/>
	<stop  offset="0.1047" style="stop-color:#F05822"/>
	<stop  offset="0.3331" style="stop-color:#F27321"/>
	<stop  offset="0.5604" style="stop-color:#F5851F"/>
	<stop  offset="0.7841" style="stop-color:#F6921E"/>
	<stop  offset="1" style="stop-color:#F7961D"/>
</linearGradient>
<path name="pvArrow3" fill="{{pvArrow3.fill}}" d="M599.67,103.668c-0.703,0.479-0.847,1.26-0.134,1.734l11.441,7.543
	c0.707,0.477,1.818,0.162,1.818-0.701V96.83c0-0.863-1.111-1.18-1.818-0.701L599.67,103.668z">
	<animateMotion class="path1_1" ng-attr-path="{{pvArrow3.path}}" begin="0s" dur="3s" repeatCount="indefinite" />
</path>
<linearGradient id="pvArrow4" gradientUnits="userSpaceOnUse" x1="705.5818" y1="-277.6006" x2="705.5818" y2="-263.8716" gradientTransform="matrix(0 1 1 0 876.6682 -601.0461)">
	<stop  offset="0" style="stop-color:#EF4B23"/>
	<stop  offset="0.1047" style="stop-color:#F05822"/>
	<stop  offset="0.3331" style="stop-color:#F27321"/>
	<stop  offset="0.5604" style="stop-color:#F5851F"/>
	<stop  offset="0.7841" style="stop-color:#F6921E"/>
	<stop  offset="1" style="stop-color:#F7961D"/>
</linearGradient>
<path name="pvArrow4" fill="{{pvArrow4.fill}}" d="M599.67,103.668c-0.703,0.479-0.847,1.26-0.134,1.734l11.441,7.543
	c0.707,0.477,1.818,0.162,1.818-0.701V96.83c0-0.863-1.111-1.18-1.818-0.701L599.67,103.668z">
	<animateMotion class="path1_1" ng-attr-path="{{pvArrow4.path}}" begin="0s" dur="3s" repeatCount="indefinite" />
</path>
<linearGradient id="pvArrow5" gradientUnits="userSpaceOnUse" x1="288.2371" y1="-63.8096" x2="288.2371" y2="-50.0811" gradientTransform="matrix(1 0 0 -1 202.6196 60.5898)">
	<stop  offset="0" style="stop-color:#EF4B23"/>
	<stop  offset="0.1047" style="stop-color:#F05822"/>
	<stop  offset="0.3331" style="stop-color:#F27321"/>
	<stop  offset="0.5604" style="stop-color:#F5851F"/>
	<stop  offset="0.7841" style="stop-color:#F6921E"/>
	<stop  offset="1" style="stop-color:#F7961D"/>
</linearGradient>
<path name="pvArrow5" fill="{{pvArrow5.fill}}"  d="M489.989,123.797c0.479,0.703,1.26,0.846,1.734,0.133l7.543-11.441
	c0.477-0.707,0.162-1.818-0.701-1.818h-15.414c-0.863,0-1.18,1.111-0.701,1.818L489.989,123.797z">
	<animateMotion class="path1_1" ng-attr-path="{{pvArrow5.path}}" begin="0s" dur="3s" repeatCount="indefinite" />
</path>
<linearGradient id="pvArrow6" gradientUnits="userSpaceOnUse" x1="288.2371" y1="-63.8096" x2="288.2371" y2="-50.0811" gradientTransform="matrix(1 0 0 -1 202.6196 60.5898)">
	<stop  offset="0" style="stop-color:#EF4B23"/>
	<stop  offset="0.1047" style="stop-color:#F05822"/>
	<stop  offset="0.3331" style="stop-color:#F27321"/>
	<stop  offset="0.5604" style="stop-color:#F5851F"/>
	<stop  offset="0.7841" style="stop-color:#F6921E"/>
	<stop  offset="1" style="stop-color:#F7961D"/>
</linearGradient>
<path name="pvArrow6" fill="{{pvArrow6.fill}}"  d="M489.989,123.797c0.479,0.703,1.26,0.846,1.734,0.133l7.543-11.441
	c0.477-0.707,0.162-1.818-0.701-1.818h-15.414c-0.863,0-1.18,1.111-0.701,1.818L489.989,123.797z">
	<animateMotion class="path1_1" ng-attr-path="{{pvArrow6.path}}" begin="0s" dur="3s" repeatCount="indefinite" />
</path>
<linearGradient id="pvArrow7" gradientUnits="userSpaceOnUse" x1="843.384" y1="-405.6743" x2="843.384" y2="-391.9458" gradientTransform="matrix(0 1 1 0 876.6682 -601.0461)">
	<stop  offset="0" style="stop-color:#EF4B23"/>
	<stop  offset="0.1047" style="stop-color:#F05822"/>
	<stop  offset="0.3331" style="stop-color:#F27321"/>
	<stop  offset="0.5604" style="stop-color:#F5851F"/>
	<stop  offset="0.7841" style="stop-color:#F6921E"/>
	<stop  offset="1" style="stop-color:#F7961D"/>
</linearGradient>
<path name="pvArrow7" fill="{{pvArrow7.fill}}" d="M471.596,241.469c-0.703,0.479-0.846,1.26-0.133,1.734l11.44,7.543
	c0.707,0.477,1.818,0.162,1.818-0.701v-15.414c0-0.863-1.111-1.18-1.818-0.701L471.596,241.469z">
	<animateMotion class="path1_1" ng-attr-path="{{pvArrow7.path}}" begin="0s" dur="3s" repeatCount="indefinite" />
</path>
<linearGradient id="pvArrow8" gradientUnits="userSpaceOnUse" x1="843.384" y1="-405.6743" x2="843.384" y2="-391.9458" gradientTransform="matrix(0 1 1 0 876.6682 -601.0461)">
	<stop  offset="0" style="stop-color:#EF4B23"/>
	<stop  offset="0.1047" style="stop-color:#F05822"/>
	<stop  offset="0.3331" style="stop-color:#F27321"/>
	<stop  offset="0.5604" style="stop-color:#F5851F"/>
	<stop  offset="0.7841" style="stop-color:#F6921E"/>
	<stop  offset="1" style="stop-color:#F7961D"/>
</linearGradient>
<path name="pvArrow8" fill="{{pvArrow8.fill}}" d="M471.596,241.469c-0.703,0.479-0.846,1.26-0.133,1.734l11.44,7.543
	c0.707,0.477,1.818,0.162,1.818-0.701v-15.414c0-0.863-1.111-1.18-1.818-0.701L471.596,241.469z">
	<animateMotion class="path1_1" ng-attr-path="{{pvArrow8.path}}" begin="0s" dur="3s" repeatCount="indefinite" />
</path>
<linearGradient id="pvArrow9" gradientUnits="userSpaceOnUse" x1="233.4114" y1="-728.1509" x2="233.4114" y2="-714.4214" gradientTransform="matrix(1 0 0 -1 -81.4189 -463.9473)">
	<stop  offset="0" style="stop-color:#EF4B23"/>
	<stop  offset="0.1047" style="stop-color:#F05822"/>
	<stop  offset="0.3331" style="stop-color:#F27321"/>
	<stop  offset="0.5604" style="stop-color:#F5851F"/>
	<stop  offset="0.7841" style="stop-color:#F6921E"/>
	<stop  offset="1" style="stop-color:#F7961D"/>
</linearGradient>
<path name="pvArrow9" fill="{{pvArrow9.fill}}" d="M151.125,263.602c0.478,0.703,1.259,0.847,1.733,0.131l7.543-11.438c0.477-0.707,0.161-1.82-0.7-1.82
	h-15.415c-0.863,0-1.18,1.113-0.7,1.82L151.125,263.602z">
	<animateMotion class="path1_1" ng-attr-path="{{pvArrow9.path}}" begin="0s" dur="3s" repeatCount="indefinite" />
</path>
<linearGradient id="pvArrow10" gradientUnits="userSpaceOnUse" x1="233.4114" y1="-728.1509" x2="233.4114" y2="-714.4214" gradientTransform="matrix(1 0 0 -1 -81.4189 -463.9473)">
	<stop  offset="0" style="stop-color:#EF4B23"/>
	<stop  offset="0.1047" style="stop-color:#F05822"/>
	<stop  offset="0.3331" style="stop-color:#F27321"/>
	<stop  offset="0.5604" style="stop-color:#F5851F"/>
	<stop  offset="0.7841" style="stop-color:#F6921E"/>
	<stop  offset="1" style="stop-color:#F7961D"/>
</linearGradient>
<path name="pvArrow10" fill="{{pvArrow10.fill}}" d="M151.125,263.602c0.478,0.703,1.259,0.847,1.733,0.131l7.543-11.438c0.477-0.707,0.161-1.82-0.7-1.82
	h-15.415c-0.863,0-1.18,1.113-0.7,1.82L151.125,263.602z">
	<animateMotion class="path1_1" ng-attr-path="{{pvArrow10.path}}" begin="0s" dur="3s" repeatCount="indefinite" />
</path>

<!-- grid -->
<g name="grid">
	<path fill="#525252" d="M167.396,52.674h-30.888c-1.172,0-2.24-0.673-2.746-1.729c-0.504-1.057-0.357-2.313,0.379-3.222
		L149.584,28.6c0.578-0.716,1.449-1.131,2.368-1.131l0,0c0.919,0,1.786,0.415,2.364,1.131l15.444,19.121
		c0.737,0.91,0.884,2.164,0.378,3.222C169.635,52.001,168.567,52.674,167.396,52.674z M142.875,46.59h18.151l-9.074-11.237
		L142.875,46.59z"/>
	<path fill="#525252" d="M178.314,52.674h-52.727c-1.68,0-3.042-1.362-3.042-3.042c0-1.68,1.36-3.042,3.042-3.042h52.727
		c1.681,0,3.042,1.362,3.042,3.042C181.356,51.312,179.994,52.674,178.314,52.674z"/>
	<path fill="#525252" d="M168.991,75.746h-34.078c-1.148,0-2.199-0.647-2.717-1.673c-0.518-1.024-0.413-2.252,0.27-3.178
		l17.039-23.07c0.574-0.778,1.481-1.236,2.448-1.236c0.964,0,1.872,0.46,2.444,1.236l17.04,23.07
		c0.683,0.923,0.787,2.153,0.271,3.178C171.189,75.098,170.139,75.746,168.991,75.746z M140.94,69.663h22.022l-11.011-14.912
		L140.94,69.663z"/>
	<path fill="#525252" d="M181.038,75.746h-58.175c-1.68,0-3.042-1.36-3.042-3.042c0-1.679,1.362-3.041,3.042-3.041h58.176
		c1.68,0,3.042,1.362,3.042,3.041C184.08,74.384,182.719,75.746,181.038,75.746z"/>
	<path fill="#525252" d="M181.038,152.678h-58.175c-0.902,0-1.759-0.4-2.336-1.096c-0.578-0.693-0.817-1.608-0.654-2.494
		l14.131-76.936c0.266-1.444,1.522-2.492,2.991-2.492h29.916c1.468,0,2.726,1.048,2.99,2.492l14.127,76.936
		c0.164,0.886-0.076,1.803-0.653,2.494C182.799,152.278,181.941,152.678,181.038,152.678z M126.517,146.594h50.87l-13.013-70.85
		h-24.846L126.517,146.594z"/>
	<path fill="#525252" d="M169.42,96.32c-0.542,0-1.091-0.145-1.586-0.448L134.238,75.3c-1.433-0.878-1.884-2.753-1.005-4.183
		c0.877-1.435,2.749-1.884,4.184-1.005l33.595,20.574c1.434,0.877,1.883,2.751,1.005,4.182
		C171.442,95.803,170.442,96.32,169.42,96.32z"/>
	<path fill="#525252" d="M134.483,96.32c-1.023,0-2.021-0.516-2.597-1.453c-0.878-1.432-0.428-3.305,1.005-4.183l33.596-20.573
		c1.432-0.878,3.305-0.429,4.185,1.005c0.877,1.431,0.428,3.305-1.005,4.182l-33.599,20.574
		C135.574,96.176,135.026,96.32,134.483,96.32z"/>
	<path fill="#525252" d="M173.84,122.983c-0.569,0-1.146-0.159-1.657-0.494l-39.426-25.687c-1.407-0.915-1.807-2.8-0.888-4.208
		c0.917-1.408,2.802-1.807,4.209-0.889l39.427,25.685c1.408,0.92,1.806,2.804,0.888,4.212
		C175.81,122.497,174.835,122.983,173.84,122.983z"/>
	<path fill="#525252" d="M130.063,122.983c-0.993,0-1.968-0.486-2.552-1.38c-0.918-1.408-0.519-3.292,0.889-4.212l39.428-25.685
		c1.407-0.919,3.291-0.52,4.209,0.889c0.918,1.409,0.521,3.293-0.889,4.208l-39.428,25.686
		C131.208,122.824,130.632,122.983,130.063,122.983z"/>
	<path fill="#525252" d="M181.036,152.679c-0.521,0-1.048-0.133-1.529-0.414l-50.979-29.696c-1.452-0.845-1.942-2.708-1.099-4.158
		c0.846-1.451,2.708-1.943,4.159-1.099l50.979,29.696c1.452,0.846,1.943,2.709,1.1,4.16
		C183.103,152.137,182.082,152.679,181.036,152.679z"/>
	<path fill="#525252" d="M122.867,152.679c-1.048,0-2.065-0.542-2.632-1.512c-0.846-1.451-0.354-3.314,1.099-4.16l50.977-29.695
		c1.452-0.846,3.313-0.353,4.16,1.099c0.846,1.451,0.354,3.313-1.099,4.158l-50.978,29.698
		C123.913,152.548,123.387,152.679,122.867,152.679z"/>
	<polygon fill="#1C95D3" points="111.548,69.261 98.281,91.128 105.896,91.128 101.476,107.098 116.953,84.496 109.336,84.496 	"/>
	<polygon fill="#1C95D3" points="194.593,47.051 186.95,59.65 191.338,59.65 188.79,68.851 197.706,55.826 193.319,55.826 	"/>
</g>

<!-- factory -->
<g name="factory">
	<polygon fill="#FFFFFF" points="196.05,399.445 196.05,447.197 203.675,447.197 203.675,395.42 196.05,395.42 	"/>
	<rect x="196.05" y="387.16" fill="#FFFFFF" width="7.625" height="1.498"/>
	<path fill="#FFFFFF" d="M164.069,418.632c-1.061-0.6-1.717-1.724-1.717-2.941v-10.259l-21.813,13.149
		c-1.044,0.63-2.346,0.65-3.407,0.051s-1.718-1.724-1.718-2.945v-10.258L114.3,418.162v29.034h74.989v-41.766l-21.813,13.152
		C166.432,419.213,165.13,419.232,164.069,418.632z M132.394,432.6c0,0.573-0.465,1.041-1.04,1.041h-9.88
		c-0.574,0-1.04-0.468-1.04-1.041v-5.376c0-0.57,0.466-1.038,1.04-1.038h9.88c0.575,0,1.04,0.466,1.04,1.038V432.6z M157.776,432.6
		c0,0.573-0.466,1.041-1.041,1.041h-9.879c-0.575,0-1.041-0.468-1.041-1.041v-5.376c0-0.57,0.466-1.038,1.041-1.038h9.879
		c0.575,0,1.041,0.466,1.041,1.038V432.6z M171.195,427.224c0-0.57,0.467-1.038,1.041-1.038h9.881c0.573,0,1.039,0.466,1.039,1.038
		v5.376c0,0.573-0.466,1.041-1.039,1.041h-9.881c-0.574,0-1.041-0.468-1.041-1.041V427.224z"/>
	<g>
		<path fill="#1C95D3" d="M181.619,358.904c1.231-0.33,2.544,0.14,3.273,1.188c0.732,1.047,0.726,2.443-0.019,3.481
			c-1.313,1.844-1.506,4.243-0.508,6.264c0.723,1.463,1.973,2.555,3.52,3.077c1.546,0.526,3.203,0.414,4.666-0.311
			c0.317-0.153,0.626-0.351,0.946-0.586c0.562-0.419,1.219-0.614,1.869-0.6c0.888,0.018,1.759,0.429,2.337,1.186
			c1.33,1.742,3.723,2.299,5.688,1.328c1.103-0.546,1.924-1.484,2.318-2.649c0.394-1.163,0.311-2.41-0.234-3.513
			c-0.208-0.419-0.474-0.803-0.794-1.141c-1.134-1.189-1.105-3.069,0.063-4.228c3.28-3.252,4.112-8.217,2.066-12.354
			c-2.617-5.294-9.057-7.473-14.354-4.854c-1.496,0.737-3.309,0.124-4.046-1.371c-1.271-2.567-3.461-4.484-6.172-5.398
			c-2.712-0.919-5.617-0.727-8.183,0.543c-5.297,2.618-7.476,9.059-4.855,14.354C171.469,357.901,176.69,360.251,181.619,358.904z"
			/>
		<path fill="#525252" d="M201.362,377.528c-2.359,0-4.626-1.104-6.075-2.953c-0.446,0.327-0.891,0.597-1.354,0.825
			c-2.196,1.087-4.729,1.257-7.048,0.467c-2.334-0.787-4.223-2.439-5.315-4.651c-1.47-2.971-1.229-6.483,0.613-9.233
			c-1.104,0.28-2.236,0.419-3.373,0.419l0,0c-5.222,0-10.089-3.021-12.402-7.698c-1.636-3.313-1.884-7.063-0.697-10.565
			c1.186-3.503,3.66-6.335,6.969-7.97c3.297-1.631,7.085-1.879,10.565-0.701c3.468,1.173,6.277,3.615,7.922,6.887
			c1.896-0.925,3.924-1.39,6.024-1.39c5.313,0,10.072,2.953,12.422,7.703c2.627,5.313,1.579,11.683-2.602,15.885
			c0.503,0.541,0.931,1.16,1.267,1.838c0.912,1.848,1.052,3.941,0.392,5.895c-0.66,1.955-2.042,3.534-3.892,4.446
			C203.72,377.248,202.54,377.528,201.362,377.528z M195.302,368.295l0.134,0.003c1.875,0.038,3.606,0.916,4.749,2.409
			c0.412,0.538,1.21,0.73,1.828,0.424c0.357-0.178,0.615-0.47,0.744-0.851c0.128-0.378,0.103-0.771-0.074-1.127
			c-0.071-0.144-0.155-0.266-0.254-0.366c-2.293-2.412-2.236-6.27,0.122-8.603c2.326-2.306,2.916-5.824,1.467-8.755
			c-1.29-2.606-3.904-4.229-6.827-4.229c-1.167,0-2.294,0.265-3.348,0.787c-0.842,0.417-1.783,0.635-2.719,0.635
			c-2.354,0-4.465-1.311-5.507-3.417c-0.899-1.821-2.453-3.18-4.375-3.829c-1.922-0.652-3.981-0.516-5.8,0.386
			c-1.814,0.895-3.172,2.45-3.822,4.375c-0.651,1.922-0.518,3.983,0.381,5.797c1.27,2.569,3.942,4.229,6.81,4.229l0,0
			c0.668,0,1.335-0.089,1.983-0.268c2.522-0.681,5.201,0.322,6.657,2.412c1.482,2.122,1.47,4.97-0.038,7.076
			c-0.643,0.901-0.737,2.079-0.249,3.067c0.357,0.726,0.954,1.246,1.722,1.508c0.762,0.254,1.564,0.203,2.285-0.152
			c0.146-0.073,0.296-0.168,0.46-0.292C192.703,368.719,193.971,368.295,195.302,368.295z"/>
	</g>
	<path fill="#1C95D3" d="M131.354,426.186h-9.88c-0.574,0-1.04,0.468-1.04,1.041v5.373c0,0.573,0.466,1.041,1.04,1.041h9.88
		c0.575,0,1.04-0.465,1.04-1.041v-5.373C132.394,426.653,131.929,426.186,131.354,426.186z"/>
	<path fill="#1C95D3" d="M156.735,426.186h-9.879c-0.575,0-1.041,0.468-1.041,1.041v5.373c0,0.573,0.466,1.041,1.041,1.041h9.879
		c0.575,0,1.041-0.465,1.041-1.041v-5.373C157.776,426.653,157.31,426.186,156.735,426.186z"/>
	<path fill="#1C95D3" d="M172.236,433.641h9.881c0.573,0,1.039-0.468,1.039-1.041v-5.376c0-0.57-0.466-1.038-1.039-1.038h-9.881
		c-0.574,0-1.041,0.466-1.041,1.038v5.376C171.195,433.173,171.661,433.641,172.236,433.641z"/>
	<g>
		<path fill="#525252" d="M207.054,380.402h-14.385c-1.866,0-3.38,1.513-3.38,3.379v8.26v5.497l-20.18,12.167v-10.26
			c0-1.22-0.655-2.345-1.718-2.943s-2.362-0.578-3.407,0.049l-21.813,13.152v-10.258c0-1.22-0.656-2.348-1.718-2.945
			c-1.062-0.6-2.363-0.579-3.407,0.048l-27.874,16.81c-1.015,0.611-1.635,1.714-1.635,2.896v34.323c0,1.868,1.514,3.382,3.38,3.382
			h81.75h14.385c1.867,0,3.38-1.514,3.38-3.382v-66.798C210.434,381.914,208.921,380.402,207.054,380.402z M196.05,387.16h7.625
			v1.498h-7.625V387.16z M114.3,418.162l21.112-12.73v10.259c0,1.221,0.655,2.346,1.718,2.944c1.063,0.6,2.363,0.578,3.407-0.049
			l21.813-13.152v10.259c0,1.219,0.656,2.344,1.717,2.942c1.063,0.603,2.363,0.581,3.408-0.049l21.813-13.152V447.2H114.3V418.162z
			 M203.675,447.197h-7.625v-47.75v-4.026h7.625V447.197z"/>
	</g>
</g>

<text name="coolingtower_syncTime" transform="matrix(1 0 0 1 1090.303 173.2139)" fill="#525252" font-weight="500" font-family="'NanumSquareEB'" font-size="18">{{meterObj.METER_5M_COOLING_TOWER.last.cdt | date:'HH:mm:ss'}}</text>

<!-- pv -->
<g name="coolingtower">
	<path fill="#FFFFFF" d="M1137.434,31.799c-0.508,0-1.011,0.088-1.495,0.263c-0.76,0.274-1.433,0.759-1.944,1.402
		c-0.465,0.585-1.164,0.937-1.912,0.962c-0.744,0.017-1.468-0.278-1.972-0.832c-1.488-1.631-3.868-2.253-5.93-1.51
		c-1.947,0.703-3.312,2.447-3.559,4.551c-0.089,0.753-0.509,1.429-1.145,1.842c-0.637,0.413-1.423,0.521-2.147,0.297
		c-0.487-0.151-0.99-0.228-1.493-0.228c-0.572,0-1.139,0.099-1.682,0.295c-2.603,0.938-3.955,3.82-3.017,6.422
		c0.093,0.255,0.216,0.516,0.374,0.792c0.538,0.936,0.428,2.109-0.272,2.93c-1.317,1.541-0.774,3.604-0.481,4.42
		c0.665,1.84,2.424,3.077,4.379,3.077c0.535,0,1.066-0.094,1.577-0.278c0.813-0.293,1.534-0.827,2.084-1.543
		c0.791-1.032,2.235-1.302,3.347-0.629c1.322,0.801,2.828,1.224,4.354,1.224c4.648,0,8.431-3.782,8.431-8.432
		c0-0.954-0.17-1.91-0.504-2.843c-0.295-0.82-0.15-1.733,0.382-2.422c0.532-0.69,1.375-1.061,2.248-0.982
		c0.139,0.012,0.278,0.019,0.42,0.019c0.504,0,0.992-0.084,1.452-0.25c1.105-0.399,1.991-1.206,2.492-2.271
		c0.5-1.065,0.555-2.26,0.156-3.367C1140.948,32.969,1139.284,31.799,1137.434,31.799z"/>
	<path fill="#525252" d="M1146.379,32.978c-1.356-3.759-4.95-6.285-8.945-6.285c-1.101,0-2.187,0.191-3.228,0.566
		c-0.818,0.295-1.588,0.701-2.289,1.203c-2.742-1.834-6.32-2.315-9.47-1.18c-2.934,1.059-5.183,3.319-6.264,6.166
		c-1.273-0.041-2.551,0.156-3.761,0.592c-5.25,1.894-7.98,7.706-6.086,12.96c0.012,0.033,0.024,0.065,0.037,0.098
		c-1.268,2.318-1.438,5.21-0.417,8.041c1.392,3.857,5.081,6.45,9.181,6.45c1.128,0,2.242-0.195,3.311-0.581
		c1.059-0.382,2.039-0.949,2.902-1.672c1.631,0.675,3.38,1.026,5.149,1.026c7.464,0,13.536-6.073,13.536-13.537
		c0-0.485-0.027-0.97-0.08-1.453c0.237-0.064,0.473-0.139,0.705-0.223c2.389-0.862,4.3-2.604,5.38-4.902
		S1147.241,35.367,1146.379,32.978z M1141.421,38.077c-0.501,1.065-1.387,1.871-2.492,2.271c-0.46,0.166-0.948,0.25-1.452,0.25
		c-0.142,0-0.281-0.007-0.42-0.019c-0.873-0.078-1.716,0.292-2.248,0.982c-0.532,0.689-0.677,1.603-0.382,2.422
		c0.334,0.933,0.504,1.889,0.504,2.843c0,4.649-3.782,8.432-8.431,8.432c-1.526,0-3.032-0.423-4.354-1.224
		c-1.111-0.673-2.556-0.402-3.347,0.629c-0.55,0.716-1.271,1.25-2.084,1.543c-0.511,0.184-1.042,0.278-1.577,0.278
		c-1.955,0-3.714-1.236-4.379-3.077c-0.293-0.816-0.836-2.88,0.481-4.42c0.7-0.821,0.811-1.994,0.272-2.93
		c-0.158-0.276-0.281-0.537-0.374-0.792c-0.938-2.603,0.414-5.484,3.017-6.422c0.543-0.196,1.109-0.295,1.682-0.295
		c0.503,0,1.006,0.077,1.493,0.228c0.725,0.224,1.511,0.116,2.147-0.297c0.636-0.414,1.056-1.089,1.145-1.842
		c0.247-2.104,1.611-3.848,3.559-4.551c2.062-0.744,4.441-0.122,5.93,1.51c0.504,0.553,1.228,0.848,1.972,0.832
		c0.748-0.025,1.447-0.376,1.912-0.962c0.512-0.643,1.185-1.128,1.944-1.402c0.484-0.175,0.987-0.263,1.495-0.263
		c1.851,0,3.515,1.17,4.144,2.912C1141.976,35.817,1141.921,37.012,1141.421,38.077z"/>
	<path fill="#FFFFFF" d="M1093.706,78.299c-0.309,8.911-1.99,39.256-10.876,63.751h61.24c-8.887-24.495-10.567-54.84-10.876-63.751
		H1093.706z"/>
	<rect x="1093.772" y="69.201" fill="#FFFFFF" width="39.354" height="3.992"/>
	<path fill="#525252" d="M1150.045,143.4c-10.997-27.576-11.789-66.326-11.813-67.652c0,0,0-0.001,0-0.001v-9.097
		c0-1.41-1.143-2.553-2.553-2.553h-44.46c-1.41,0-2.553,1.143-2.553,2.553v9.097c0,0,0,0.001,0,0.001
		c-0.023,1.329-0.819,40.312-11.912,67.903c-0.316,0.787-0.221,1.679,0.253,2.382c0.475,0.703,1.268,1.124,2.115,1.124h68.653
		c0.005,0,0.011,0,0.016,0c1.41,0,2.553-1.143,2.553-2.553C1150.345,144.168,1150.236,143.758,1150.045,143.4z M1082.83,142.05
		c8.886-24.495,10.567-54.84,10.876-63.751h39.488c0.309,8.911,1.989,39.256,10.876,63.751H1082.83z M1093.772,69.201h39.354v3.992
		h-39.354V69.201z"/>
	<path fill="#1994D2" d="M1129.554,117.626l-1.971-1.137l1.594-0.438c0.85-0.233,1.35-1.111,1.116-1.96s-1.112-1.351-1.961-1.117
		l-4.634,1.272l-2.324-1.341v-5.465l2.321-1.341l4.636,1.271c0.142,0.039,0.283,0.057,0.423,0.057c0.701,0,1.344-0.465,1.538-1.174
		c0.232-0.85-0.268-1.728-1.117-1.96l-1.594-0.437l1.97-1.137c0.764-0.44,1.024-1.416,0.584-2.179
		c-0.441-0.763-1.418-1.026-2.18-0.584l-1.971,1.138l0.418-1.601c0.224-0.852-0.287-1.724-1.14-1.946
		c-0.858-0.225-1.725,0.288-1.946,1.14l-1.215,4.65l-2.323,1.341l-4.733-2.732l-0.001-2.682l3.417-3.379
		c0.627-0.62,0.633-1.629,0.013-2.256c-0.618-0.626-1.63-0.632-2.256-0.013l-1.174,1.161v-2.272c0-0.881-0.715-1.596-1.596-1.596
		s-1.596,0.714-1.596,1.596v2.275l-1.175-1.162c-0.628-0.619-1.637-0.614-2.257,0.013c-0.619,0.627-0.613,1.637,0.013,2.256
		l3.419,3.379l0.001,2.678l-4.737,2.735l-2.319-1.338l-1.218-4.65c-0.223-0.851-1.091-1.362-1.947-1.139
		c-0.853,0.223-1.363,1.095-1.14,1.947l0.419,1.598l-1.97-1.137c-0.766-0.441-1.739-0.179-2.18,0.584s-0.179,1.739,0.584,2.179
		l1.972,1.138l-1.595,0.437c-0.85,0.233-1.349,1.111-1.116,1.96c0.194,0.708,0.837,1.174,1.538,1.174
		c0.14,0,0.281-0.019,0.423-0.058l4.635-1.271l2.318,1.339v5.471l-2.318,1.339l-4.634-1.27c-0.85-0.236-1.728,0.267-1.96,1.117
		c-0.233,0.85,0.268,1.728,1.117,1.96l1.592,0.437l-1.969,1.137c-0.763,0.44-1.023,1.416-0.584,2.179
		c0.296,0.512,0.832,0.798,1.384,0.798c0.271,0,0.545-0.069,0.796-0.214l1.97-1.137l-0.419,1.599
		c-0.223,0.853,0.287,1.724,1.141,1.947c0.135,0.036,0.271,0.052,0.404,0.052c0.708,0,1.354-0.475,1.542-1.192l1.216-4.649
		l2.32-1.339l4.738,2.735v2.675l-3.417,3.381c-0.627,0.62-0.632,1.629-0.013,2.256c0.313,0.315,0.723,0.473,1.135,0.473
		c0.404,0,0.811-0.153,1.121-0.461l1.175-1.161v2.274c0,0.881,0.715,1.595,1.596,1.595s1.596-0.714,1.596-1.596v-2.274l1.175,1.162
		c0.627,0.619,1.637,0.613,2.256-0.014c0.62-0.627,0.613-1.637-0.014-2.256l-3.418-3.377l-0.001-2.682l4.736-2.733l2.32,1.339
		l1.218,4.649c0.188,0.717,0.834,1.191,1.542,1.191c0.133,0,0.27-0.017,0.405-0.052c0.852-0.223,1.362-1.096,1.139-1.948
		l-0.418-1.598l1.969,1.137c0.252,0.145,0.526,0.214,0.797,0.214c0.551,0,1.087-0.286,1.383-0.798
		C1130.578,119.042,1130.316,118.067,1129.554,117.626z M1116.465,111.913c-0.356,0.617-0.247,1.369,0.209,1.868l-1.71,0.986
		c-0.205-0.643-0.801-1.112-1.513-1.112c-0.713,0-1.31,0.471-1.515,1.117l-1.709-0.987c0.456-0.5,0.565-1.251,0.209-1.869
		c-0.356-0.617-1.064-0.899-1.725-0.753v-1.973c0.113,0.024,0.226,0.044,0.34,0.044c0.552,0,1.087-0.286,1.383-0.798
		c0.356-0.618,0.247-1.369-0.209-1.869l1.71-0.987c0.205,0.645,0.801,1.115,1.514,1.115c0.712,0,1.308-0.469,1.513-1.113
		l1.709,0.986c-0.455,0.5-0.563,1.25-0.208,1.866c0.296,0.512,0.832,0.798,1.384,0.798c0.112,0,0.225-0.019,0.337-0.043v1.972
		C1117.522,111.015,1116.82,111.298,1116.465,111.913z"/>
</g>
<g name="pvTimer">
	<circle fill="#1C95D3" cx="1071.88" cy="168.323" r="1.706"/>
	<path fill="#1C95D3" d="M1071.88,169.156c-0.052,0-0.104-0.005-0.155-0.014l-6.814-1.279c-0.451-0.084-0.749-0.519-0.665-0.972
		c0.084-0.45,0.522-0.75,0.971-0.664l6.816,1.278c0.452,0.084,0.749,0.52,0.663,0.972
		C1072.62,168.877,1072.272,169.156,1071.88,169.156z"/>
	<path fill="#1C95D3" d="M1071.88,169.155c-0.318,0-0.623-0.183-0.763-0.492c-0.187-0.421,0.004-0.912,0.422-1.1l8.094-3.608
		c0.42-0.187,0.91,0.001,1.1,0.42c0.188,0.421-0.001,0.912-0.42,1.1l-8.094,3.609C1072.107,169.133,1071.99,169.155,1071.88,169.155
		z"/>
	<g>
		<path fill="#525252" d="M1057.893,168.022c-0.021,0-0.044,0-0.065-0.002c-0.458-0.034-0.801-0.434-0.767-0.892
			c0.572-7.652,7.038-13.645,14.721-13.645c6.746,0,12.625,4.558,14.301,11.083c0.113,0.446-0.155,0.898-0.601,1.013
			c-0.446,0.113-0.897-0.154-1.013-0.599c-1.485-5.791-6.701-9.834-12.688-9.834c-6.814,0-12.552,5.317-13.062,12.106
			C1058.687,167.69,1058.323,168.022,1057.893,168.022z"/>
		<path fill="#525252" d="M1057.468,169.223c-0.054,0-0.106-0.005-0.159-0.015c-0.292-0.059-0.529-0.267-0.626-0.548l-1.342-3.936
			c-0.147-0.436,0.083-0.906,0.519-1.056c0.438-0.15,0.908,0.082,1.059,0.517l0.875,2.573l1.791-2.045
			c0.301-0.347,0.827-0.383,1.172-0.079c0.347,0.301,0.382,0.828,0.08,1.172l-2.737,3.129
			C1057.937,169.122,1057.707,169.223,1057.468,169.223z"/>
	</g>
	<g>
		<path fill="#525252" d="M1071.977,183.163c-6.745,0-12.624-4.558-14.3-11.084c-0.114-0.445,0.153-0.899,0.599-1.014
			c0.447-0.115,0.899,0.155,1.014,0.6c1.485,5.79,6.701,9.834,12.688,9.834c6.813,0,12.552-5.317,13.062-12.106
			c0.033-0.458,0.438-0.801,0.894-0.767c0.46,0.034,0.802,0.433,0.768,0.893C1086.12,177.17,1079.657,183.163,1071.977,183.163z"/>
		<path fill="#525252" d="M1087.63,173.019c-0.348,0-0.671-0.217-0.787-0.563l-0.879-2.572l-1.787,2.044
			c-0.304,0.349-0.828,0.383-1.173,0.08c-0.35-0.302-0.384-0.829-0.079-1.173l2.735-3.129c0.196-0.225,0.497-0.325,0.788-0.27
			c0.291,0.059,0.528,0.267,0.624,0.547l1.344,3.936c0.147,0.436-0.084,0.908-0.521,1.058
			C1087.808,173.007,1087.718,173.019,1087.63,173.019z"/>
	</g>
</g>

<!-- battery -->
<g name="battery">
	<g ng-click="goBMSDetail()">
		<path fill="#FFFFFF" d="M1158.384,361.037h-85.672c-1.561,0-2.83,1.27-2.83,2.834v8.216c0,1.849-1.497,3.347-3.349,3.347h-4.318
			c-0.332,0-0.612,0.282-0.612,0.614v24.19c0,0.335,0.279,0.613,0.612,0.613h4.318c1.852,0,3.349,1.498,3.349,3.35v8.217
			c0,1.559,1.271,2.833,2.83,2.833h85.672c1.563,0,2.835-1.274,2.835-2.833v-48.55
			C1161.219,362.307,1159.949,361.037,1158.384,361.037z"/>
		<path fill="#525252" d="M1158.384,354.342h-85.672c-5.251,0-9.522,4.273-9.522,9.526v4.87h-0.975c-4.03,0-7.31,3.277-7.31,7.308
			v24.192c0,4.028,3.278,7.307,7.31,7.307h0.975v4.873c0,5.251,4.271,9.523,9.522,9.523h85.672c5.253,0,9.525-4.272,9.525-9.523
			v-48.55C1167.912,358.617,1163.637,354.342,1158.384,354.342z M1161.219,412.418c0,1.559-1.271,2.833-2.835,2.833h-85.672
			c-1.561,0-2.83-1.274-2.83-2.833v-8.217c0-1.852-1.497-3.35-3.349-3.35h-4.318c-0.332,0-0.612-0.278-0.612-0.613v-24.19
			c0-0.332,0.279-0.614,0.612-0.614h4.318c1.852,0,3.349-1.498,3.349-3.347v-8.216c0-1.564,1.271-2.834,2.83-2.834h85.672
			c1.563,0,2.835,1.27,2.835,2.834V412.418z"/>
		<path fill="#89C540" ng-if="bmsAlrams_length > 0" d="M1190.731,377.057c0,0.662-0.536,1.195-1.196,1.195h-12.937c-0.66,0-1.195-0.533-1.195-1.195V364.12
			c0-0.66,0.535-1.196,1.195-1.196h12.937c0.66,0,1.196,0.536,1.196,1.196V377.057z"/>
		<path fill="#FEDE27" ng-if="bmsWarnings_length > 0" d="M1190.731,394.609c0,0.663-0.536,1.195-1.196,1.195h-12.937c-0.66,0-1.195-0.532-1.195-1.195v-12.938
			c0-0.66,0.535-1.195,1.195-1.195h12.937c0.66,0,1.196,0.535,1.196,1.195V394.609z"/>
		<path fill="#E24D4D" ng-if="bmsFaluts_length > 0" d="M1190.731,412.161c0,0.66-0.536,1.196-1.196,1.196h-12.937c-0.66,0-1.195-0.536-1.195-1.196v-12.938
			c0-0.659,0.535-1.194,1.195-1.194h12.937c0.66,0,1.196,0.535,1.196,1.194V412.161z"/>
		<g>
			<g>
				<defs>
					<path id="SVGID_2_" d="M1155.244,407.823c0,0.813-0.662,1.475-1.473,1.475h-76.908c-0.813,0-1.475-0.662-1.475-1.475v-39.358
						c0-0.81,0.662-1.473,1.475-1.473h76.908c0.811,0,1.473,0.663,1.473,1.473V407.823z"/>
				</defs>
				<clipPath id="SVGID_3_">
					<use xlink:href="#SVGID_2_"  overflow="visible"/>
				</clipPath>
				<g clip-path="url(#SVGID_3_)">
					<path fill="#BABABA" d="M1075.39,366.991h80.18v42.306h-80.18V366.991z"/>
				</g>
			</g>
		</g>
		<path fill="{{soc_backColor}}" d="M1155.244,407.823c0,0.813-0.662,1.475-1.473,1.475h-{{soc_svg}}c-0.813,0-1.475-0.662-1.475-1.475v-39.358
			c0-0.81,0.662-1.473,1.475-1.473h{{soc_svg}}c0.811,0,1.473,0.663,1.473,1.473V407.823z"/>
	<g name="battery_alrams" ng-if="bmsAlrams_length > 0">
		<text transform="matrix(1 0 0 1 1178.2307 375.8193)" fill="#FFFFFF" font-weight="500" font-family="'NanumSquareEB'" font-size="15.6">{{bmsAlrams_length}}</text>
	</g>
	<g name="battery_warnings" ng-if="bmsWarnings_length > 0">
		<text transform="matrix(1 0 0 1 1178.2307 393.3701)" fill="#FFFFFF" font-weight="500" font-family="'NanumSquareEB'" font-size="15.6">{{bmsWarnings_length}}</text>
	</g>
	<g name="battery_faults" ng-if="bmsFaluts_length > 0 ">
		<text transform="matrix(1 0 0 1 1178.2307 410.9238)" fill="#FFFFFF" font-weight="500" font-family="'NanumSquareEB'" font-size="15.6">{{bmsFaluts_length}}</text>
	</g>
</g>
<g name="battery_soh">
	<path fill="#1C95D3" d="M1076.878,448.798c-0.005,0-0.01,0-0.015,0c-0.31-0.006-0.585-0.209-0.683-0.506l-1.476-4.512l-0.702,1.412
		c-0.125,0.245-0.377,0.402-0.656,0.402h-6.378c-0.403,0-0.731-0.327-0.731-0.73s0.328-0.731,0.731-0.731h5.929l1.296-2.6
		c0.134-0.268,0.406-0.427,0.71-0.406c0.296,0.021,0.549,0.221,0.64,0.503l1.369,4.188l2.31-6.398
		c0.104-0.289,0.375-0.481,0.68-0.484c0.002,0,0.006,0,0.009,0c0.302,0,0.572,0.186,0.683,0.468l1.813,4.691l0.942-1.646
		c0.122-0.211,0.338-0.349,0.581-0.365c0.247-0.021,0.476,0.086,0.625,0.273l1.409,1.774h6.635c0.406,0,0.73,0.327,0.73,0.731
		c0,0.402-0.327,0.732-0.73,0.732h-6.99c-0.224,0-0.435-0.102-0.57-0.278l-0.957-1.203l-1.171,2.038
		c-0.138,0.247-0.409,0.389-0.688,0.365c-0.282-0.021-0.526-0.202-0.626-0.465l-1.659-4.299l-2.367,6.559
		C1077.459,448.605,1077.185,448.798,1076.878,448.798z"/>
	<path fill="#525252" d="M1079.781,456.582c-0.13,0-0.262-0.035-0.376-0.104c-0.663-0.398-16.207-9.866-16.207-18.932
		c0-5.695,4.36-9.098,8.574-9.098c3.271,0,6.127,1.855,8.009,5.146c1.885-3.29,4.741-5.146,8.008-5.146
		c4.216,0,8.577,3.401,8.577,9.098c0,9.064-15.544,18.532-16.207,18.932C1080.046,456.547,1079.913,456.582,1079.781,456.582z
		 M1071.773,429.912c-3.493,0-7.109,2.855-7.109,7.635c0,7.511,12.744,15.937,15.118,17.44c2.376-1.505,15.12-9.931,15.12-17.44
		c0-4.778-3.616-7.635-7.112-7.635c-3.076,0-5.754,2.041-7.339,5.601c-0.118,0.263-0.379,0.433-0.669,0.433
		c-0.287,0-0.549-0.17-0.668-0.433C1077.528,431.953,1074.854,429.912,1071.773,429.912z"/>
</g>
<text transform="matrix(1 0 0 1 1115.0588 397.6602)" fill="#FFFFFF" font-weight="500" font-family="'NanumSquareEB'" font-size="23.4"><tspan text-anchor="middle">{{bms_data.bsc.soc}}%</tspan></text>
<text transform="matrix(1 0 0 1 1104.7678 448.7979)" fill="#525252" font-weight="500" font-family="'NanumSquareEB'" font-size="18.2">{{bms_data.bsc.soh}} %</text>
<text transform="matrix(1 0 0 1 1104.7678 485.8252)" fill="#525252" font-weight="500" font-family="'NanumSquareEB'" font-size="18.2">{{bms_data.session}} {{ts.TIMES}}</text>
<g name="battery_session">
	<g>
		<g>
			<path fill="#525252" d="M1089.031,485.792h-14.782c-0.905,0-1.644-0.739-1.644-1.646v-0.842h-0.168
				c-0.695,0-1.263-0.565-1.263-1.259v-4.177c0-0.693,0.566-1.263,1.263-1.263h0.168v-0.839c0-0.905,0.734-1.645,1.644-1.645h14.782
				c0.908,0,1.646,0.736,1.646,1.645v8.377C1090.677,485.053,1089.94,485.792,1089.031,485.792z M1072.438,477.763
				c-0.058,0-0.105,0.052-0.105,0.107v4.177c0,0.056,0.049,0.104,0.105,0.104h0.744c0.32,0,0.579,0.259,0.579,0.579v1.417
				c0,0.269,0.219,0.486,0.487,0.486h14.781c0.271,0,0.489-0.219,0.489-0.486v-8.378c0-0.269-0.219-0.488-0.489-0.488h-14.781
				c-0.27,0-0.487,0.221-0.487,0.488v1.417c0,0.32-0.259,0.576-0.579,0.576H1072.438L1072.438,477.763z"/>
		</g>
		<g>
			<path fill="#1C95D3" d="M1081.306,483.365c0,0.135-0.112,0.244-0.245,0.244h-2.396c-0.137,0-0.245-0.112-0.245-0.244v-6.811
				c0-0.135,0.108-0.246,0.245-0.246h2.396c0.136,0,0.245,0.111,0.245,0.246V483.365z"/>
		</g>
		<g>
			<path fill="#1C95D3" d="M1088.484,483.365c0,0.135-0.11,0.244-0.245,0.244h-2.396c-0.136,0-0.245-0.112-0.245-0.244v-6.811
				c0-0.135,0.109-0.246,0.245-0.246h2.396c0.137,0,0.245,0.111,0.245,0.246V483.365z"/>
		</g>
		<g>
			<path fill="#1C95D3" d="M1084.896,483.365c0,0.135-0.11,0.244-0.244,0.244h-2.396c-0.137,0-0.245-0.112-0.245-0.244v-6.811
				c0-0.135,0.108-0.246,0.245-0.246h2.396c0.135,0,0.244,0.111,0.244,0.246V483.365z"/>
		</g>
		<g>
			<path fill="#1C95D3" d="M1077.715,483.365c0,0.135-0.111,0.244-0.245,0.244h-2.397c-0.135,0-0.244-0.112-0.244-0.244v-6.811
				c0-0.135,0.11-0.246,0.244-0.246h2.397c0.136,0,0.245,0.111,0.245,0.246V483.365z"/>
		</g>
	</g>
	<g>
		<path fill="#525252" d="M1080.698,495.661c-7.197,0-13.449-4.87-15.197-11.843c-0.12-0.473,0.168-0.952,0.642-1.071
			c0.47-0.116,0.951,0.17,1.072,0.643c1.551,6.187,7.097,10.504,13.483,10.504c7.664,0,13.901-6.234,13.901-13.9
			c0-7.665-6.237-13.901-13.901-13.901c-7.232,0-13.324,5.646-13.863,12.849c-0.037,0.486-0.469,0.851-0.947,0.814
			c-0.486-0.036-0.852-0.46-0.815-0.947c0.609-8.119,7.474-14.481,15.627-14.481c8.641,0,15.669,7.027,15.669,15.668
			S1089.338,495.661,1080.698,495.661z"/>
		<path fill="#525252" d="M1065.509,481.031c-0.059,0-0.114-0.006-0.172-0.02c-0.31-0.061-0.563-0.28-0.665-0.578l-1.426-4.18
			c-0.156-0.46,0.09-0.962,0.553-1.12c0.463-0.157,0.963,0.089,1.119,0.552l0.932,2.731l1.898-2.173
			c0.322-0.366,0.88-0.406,1.247-0.082c0.366,0.32,0.404,0.879,0.082,1.244l-2.904,3.324
			C1066.002,480.924,1065.759,481.031,1065.509,481.031z"/>
	</g>
</g>

<!-- battery detail -->
<rect x="1205.731" y="338.249" fill="#F2F2F2" width="75" height="75.002"/>
<text transform="matrix(1 0 0 1 1213.2307 357.2393)" fill="#858585" font-weight="500" font-family="'NanumSquareEB'" font-size="12">{{ts.AVAILABILITY}}</text>
<text transform="matrix(1 0 0 1 1227.3909 386.1387)" fill="#525252" font-weight="500" font-family="'NanumSquareEB'" font-size="18">{{designkw*bms_data.bsc.soc/100}}</text>
<g>
	<text transform="matrix(1 0 0 1 1249.4104 402.8447)" fill="#525252" font-weight="500" font-family="'NanumSquareB'" font-size="12">kWh</text>
</g>
<rect x="1284.731" y="417.251" fill="#F2F2F2" width="75" height="75"/>
<text transform="matrix(1 0 0 1 1292.2307 436.2402)" fill="#858585" font-weight="500" font-family="'NanumSquareEB'" font-size="12">{{ts.STATUS}}</text>
<text transform="matrix(1 0 0 1 1308.885 465.1406)" fill="#525252" font-weight="500" font-family="'NanumSquareEB'" font-size="18">{{bms_data.strMode | uppercase}}</text>
<g>
	<text transform="matrix(1 0 0 1 1334.9983 481.8457)" fill="#525252" font-weight="500" font-family="'NanumSquareB'" font-size="12"></text>
</g>
<rect x="1284.731" y="338.249" fill="#F2F2F2"  width="75" height="75.002"/>
<text transform="matrix(1 0 0 1 1292.2307 357.2393)" fill="#858585" font-weight="500" font-family="'NanumSquareEB'" font-size="12">{{ts.CURRENT}}</text>
<text transform="matrix(1 0 0 1 1303.7542 386.1387)" fill="#525252" font-weight="500" font-family="'NanumSquareEB'" font-size="18">{{bms_data.bsc.dca}}</text>
<g>
	<text transform="matrix(1 0 0 1 1344.7542 402.8447)" fill="#525252" font-weight="500" font-family="'NanumSquareB'" font-size="12">A</text>
</g>
<rect x="1205.731" y="417.251" fill="#F2F2F2" width="75" height="75.002"/>
<text transform="matrix(1 0 0 1 1213.2307 436.2412)" fill="#858585" font-weight="500" font-family="'NanumSquareEB'" font-size="12">{{ts.VOLTAGE}}</text>
<text transform="matrix(1 0 0 1 1224.7542 465.1406)" fill="#525252" font-weight="500" font-family="'NanumSquareEB'" font-size="18">{{bms_data.bsc.dcv}}</text>
<g>
	<text transform="matrix(1 0 0 1 1265.7542 481.8467)" fill="#525252" font-weight="500" font-family="'NanumSquareB'" font-size="12">V</text>
</g>
<rect x="1363.731" y="338.249" fill="#F3F2F2" width="133.645" height="30"/>
<text transform="matrix(1 0 0 1 1412.1428 359.1816)" fill="#535352" font-weight="500" font-family="'NanumSquareEB'" font-size="14">{{ts.MAXIMUM}}</text>
<path fill="none" stroke="#AAAAAA" stroke-width="7" stroke-linejoin="round" stroke-miterlimit="10" d="M692.513,173.595"/>
<text transform="matrix(1 0 0 1 1369.1213 387.5352)" fill="#858585" font-weight="500" font-family="'NanumSquareR'" font-size="11">{{ts.CELL}} {{ts.VOLTAGE}}</text>
<g>
	<text transform="matrix(1 0 0 1 1450.2288 389.1699)" fill="#525252" font-weight="500" font-family="'NanumSquareEB'" font-size="12">{{ bms_data.max.cellv }} V</text>
</g>
<line fill="none" stroke="#F3F2F2" stroke-width="3" stroke-miterlimit="10" x1="1363.731" y1="397.779" x2="1497.375" y2="397.779"/>
<text transform="matrix(1 0 0 1 1369.1213 418.5352)" fill="#858585" font-weight="500" font-family="'NanumSquareR'" font-size="11">{{ts.LOCATION}} ({{ts.RACK}} - {{ts.MODULE}})</text>
<g>
	<text transform="matrix(1 0 0 1 1461.8518 420.1699)" fill="#525252" font-weight="500" font-family="'NanumSquareEB'" font-size="12">{{bms_data.max.rackvno}} - {{bms_data.max.modulevno}}</text>
</g>
<line fill="none" stroke="#F3F2F2" stroke-width="3" stroke-miterlimit="10" x1="1363.731" y1="428.779" x2="1497.375" y2="428.779"/>
<text transform="matrix(1 0 0 1 1369.1213 449.5352)" fill="#858585" font-weight="500" font-family="'NanumSquareR'" font-size="11">{{ts.MODULE}} {{ts.TEMP}}</text>
<g>
	<text transform="matrix(1 0 0 1 1459.8362 451.1699)" fill="#525252" font-weight="500" font-family="'NanumSquareEB'" font-size="12">{{bms_data.max.moduletm}} ℃</text>
</g>
<line fill="none" stroke="#F3F2F2" stroke-width="3" stroke-miterlimit="10" x1="1363.731" y1="459.779" x2="1497.375" y2="459.779"/>
<text transform="matrix(1 0 0 1 1369.1213 480.5352)" fill="#858585" font-weight="500" font-family="'NanumSquareR'" font-size="11">{{ts.LOCATION}} ({{ts.RACK}} - {{ts.MODULE}})</text>
<g>
	<text transform="matrix(1 0 0 1 1461.8518 482.1699)" fill="#525252" font-weight="500" font-family="'NanumSquareEB'" font-size="12">{{bms_data.max.racktmno}} - {{bms_data.max.moduletmno}}</text>
</g>
<line fill="none" stroke="#F3F2F2" stroke-width="3" stroke-miterlimit="10" x1="1363.731" y1="490.779" x2="1497.375" y2="490.779"/>



<!-- pv detail -->
<rect x="1193.909" y="68.56" fill="#F2F2F2" width="75" height="75.001"/>
<text transform="matrix(1 0 0 1 1201.4104 87.5508)" fill="#858585" font-weight="500" font-family="'NanumSquareEB'" font-size="12">{{ts.ELECTRIC_ENERGE}}</text>
<text transform="matrix(1 0 0 1 1218.0627 116.4492)" fill="#525252" font-weight="500" font-family="'NanumSquareEB'" font-size="18">{{meterObj.METER_5M_COOLING_TOWER.e}}</text>
<g>
	<text transform="matrix(1 0 0 1 1228.7581 133.1543)" fill="#525252" font-weight="500" font-family="'NanumSquareB'" font-size="12">kWh</text>
</g>

<!-- 인버터 -->
<linearGradient id="SVGID_1_" gradientUnits="userSpaceOnUse" x1="645.1824" y1="426.6514" x2="645.1824" y2="403.7969" gradientTransform="matrix(1 0 0 -1 0.105 519.7598)">
	<stop  offset="0" style="stop-color:#E2E1E1"/>
	<stop  offset="1" style="stop-color:#A4A0A2"/>
</linearGradient>
<rect name="iv" x="615.797" y="93.109" fill="url(#SVGID_1_)" width="58.979" height="22.855"/>
<g>
	<text transform="matrix(1 0 0 1 629.8064 108.5371)" fill="#525252" font-weight="500" font-family="'NanumSquareEB'" font-size="12">{{ts.INVERTER}}</text>
</g>

<!-- flow_detail -->
<g name="flow_detail">

		<line fill="none" stroke="#ED2725" stroke-width="7" stroke-linejoin="round" stroke-miterlimit="10" x1="98.281" y1="499.08" x2="133.281" y2="499.08"/>

		<line fill="none" stroke="#FFC82C" stroke-width="7" stroke-linejoin="round" stroke-miterlimit="10" x1="218.281" y1="499.08" x2="253.281" y2="499.08"/>

		<line fill="none" stroke="#ABABAB" stroke-width="7" stroke-linejoin="round" stroke-miterlimit="10" x1="338.281" y1="499.08" x2="373.281" y2="499.08"/>
	<text transform="matrix(1 0 0 1 140.3474 503.5723)" font-family="'NanumSquareB'" font-weight="500" font-size="12">AC</text>
	<text transform="matrix(1 0 0 1 260.3474 503.5723)" font-family="'NanumSquareB'" font-weight="500" font-size="12">DC</text>
	<text transform="matrix(1 0 0 1 380.3474 503.5723)" font-family="'NanumSquareB'" font-weight="500" font-size="12">IDLE</text>
</g>

<!-- pcs -->
<g name="pcs_controlMode">
<rect x="522.827" y="259.355" fill="#F2F1F1" width="154" height="92.671"/>
<g>
	<text transform="matrix(1 0 0 1 544.8164 283.0647)" fill="#545453" font-family="'NanumSquareEB'" font-size="14">R</text>
</g>
<text transform="matrix(1 0 0 1 583.1914 282.3948)" fill="#949494" font-family="'NanumSquareB'" font-size="12">{{pcs_data.rst_rv}} V</text>
<text transform="matrix(1 0 0 1 628.2344 282.3948)" fill="#949494" font-family="'NanumSquareB'" font-size="12">{{pcs_data.rst_ra}} A</text>
<rect x="531.425" y="290" fill="#ABABAB" width="136.807" height="1"/>
<g>
	<text transform="matrix(1 0 0 1 545.0547 308.762)" fill="#545453" font-family="'NanumSquareEB'" font-size="14">S</text>
</g>
<text transform="matrix(1 0 0 1 583.1914 308.092)" fill="#949494" font-family="'NanumSquareB'" font-size="12">{{pcs_data.rst_sv}} V</text>
<text transform="matrix(1 0 0 1 628.2344 308.092)" fill="#949494" font-family="'NanumSquareB'" font-size="12">{{pcs_data.rst_sa}} A</text>
<rect x="531.425" y="315.699" fill="#ABABAB" width="136.807" height="1"/>
<g>
	<text transform="matrix(1 0 0 1 545.4395 334.4612)" fill="#545453" font-family="'NanumSquareEB'" font-size="14">T</text>
</g>
<text transform="matrix(1 0 0 1 583.1914 333.7913)" fill="#949494" font-family="'NanumSquareB'" font-size="12">{{pcs_data.rst_tv}} V</text>
<text transform="matrix(1 0 0 1 628.2344 333.7913)" fill="#949494" font-family="'NanumSquareB'" font-size="12">{{pcs_data.rst_ta}} A</text>
<rect x="531.425" y="341.459" fill="#ABABAB" width="136.807" height="1"/>
</g>

<g name="pcs_detail">

	<linearGradient id="SVGID_32_" gradientUnits="userSpaceOnUse" x1="903.1191" y1="190.5139" x2="903.1191" y2="265.5154">
		<stop  offset="0" style="stop-color:#EBF6F8"/>
		<stop  offset="1" style="stop-color:#B2E1F1"/>
	</linearGradient>
	<rect x="865.619" y="190.514" fill="url(#SVGID_32_)" width="75" height="75.001"/>
	<text transform="matrix(1 0 0 1 873.1191 209.5042)" fill="#838484" font-family="'NanumSquareEB'" font-size="12">{{ pcsStatusKR | uppercase}}</text>
	<text transform="matrix(1 0 0 1 887.2793 238.4026)" fill="#525252" font-family="'NanumSquareEB'" font-size="18">{{pcs_data.pkw}}</text>
	<g>
		<text transform="matrix(1 0 0 1 915.8867 255.1077)" fill="#535352" font-family="'NanumSquareB'" font-size="12">kW</text>
	</g>
	<linearGradient id="SVGID_34_" gradientUnits="userSpaceOnUse" x1="1061.1191" y1="269.5149" x2="1061.1191" y2="344.5139">
		<stop  offset="0" style="stop-color:#EBF6F8"/>
		<stop  offset="1" style="stop-color:#B2E1F1"/>
	</linearGradient>
	<rect x="1023.619" y="269.515" fill="url(#SVGID_34_)" width="75" height="74.999"/>
	<text transform="matrix(1 0 0 1 1031.1191 288.5042)" fill="#858585" font-family="'NanumSquareEB'" font-size="12">{{ts.CONTROL}} {{ts.MODE}}</text>
	<text transform="matrix(1 0 0 1 1049.9238 317.4045)" fill="#525252" font-family="'NanumSquareEB'" font-size="18">{{pcs_data.mode}}</text>
	<linearGradient id="SVGID_36_" gradientUnits="userSpaceOnUse" x1="982.1191" y1="269.5149" x2="982.1191" y2="344.5159">
		<stop  offset="0" style="stop-color:#EBF6F8"/>
		<stop  offset="1" style="stop-color:#B2E1F1"/>
	</linearGradient>
	<rect x="944.619" y="269.515" fill="url(#SVGID_36_)" width="75" height="75.001"/>
	<text transform="matrix(1 0 0 1 952.1191 288.5061)" fill="#838484" font-family="'NanumSquareEB'" font-size="12">DC {{ts.VOLTAGE}}</text>
	<text transform="matrix(1 0 0 1 968.7725 317.4045)" fill="#525252" font-family="'NanumSquareEB'" font-size="18">{{pcs_data.dcv}}</text>
	<g>
		<text transform="matrix(1 0 0 1 1004.6426 334.1096)" fill="#535352" font-family="'NanumSquareB'" font-size="12">V</text>
	</g>
	<linearGradient id="SVGID_33_" gradientUnits="userSpaceOnUse" x1="982.1191" y1="190.5139" x2="982.1191" y2="265.5154">
		<stop  offset="0" style="stop-color:#EBF6F8"/>
		<stop  offset="1" style="stop-color:#B2E1F1"/>
	</linearGradient>
	<rect x="944.619" y="190.514" fill="url(#SVGID_33_)" width="75" height="75.001"/>
	<text transform="matrix(1 0 0 1 952.1191 209.5042)" fill="#838484" font-family="'NanumSquareEB'" font-size="12">{{ts.FREQUENCY}}</text>
	<text transform="matrix(1 0 0 1 958.5127 238.4026)" fill="#525252" font-family="'NanumSquareEB'" font-size="18">{{pcs_data.hz}}</text>
	<g>
		<text transform="matrix(1 0 0 1 999.0391 255.1077)" fill="#535352" font-family="'NanumSquareB'" font-size="12">Hz</text>
	</g>
	<linearGradient id="SVGID_31_" gradientUnits="userSpaceOnUse" x1="1061.1191" y1="190.5139" x2="1061.1191" y2="265.5134">
		<stop  offset="0" style="stop-color:#EBF6F8"/>
		<stop  offset="1" style="stop-color:#B2E1F1"/>
    </linearGradient>
	<rect x="1023.619" y="190.514" fill="url(#SVGID_31_)" width="75" height="74.999"/>
	<text transform="matrix(1 0 0 1 1031.1191 209.5022)" fill="#858585" font-family="'NanumSquareEB'" font-size="12">{{ts.SURFACE}} {{ts.TEMP}}</text>
	<text transform="matrix(1 0 0 1 1050.4092 238.4026)" fill="#525252" font-family="'NanumSquareEB'" font-size="18">{{pcs_data.tm}}</text>
	<g>
		<text transform="matrix(1 0 0 1 1081.7227 255.1077)" fill="#525252" font-family="'NanumSquareB'" font-size="12">℃</text>
	</g>
	<linearGradient id="SVGID_35_" gradientUnits="userSpaceOnUse" x1="903.1191" y1="269.5149" x2="903.1191" y2="344.5159">
	<stop  offset="0" style="stop-color:#EBF6F8"/>
	<stop  offset="1" style="stop-color:#B2E1F1"/>
	</linearGradient>
	<rect x="865.619" y="269.515" fill="url(#SVGID_35_)" width="75" height="75.001"/>
	<text transform="matrix(1 0 0 1 873.1191 288.5061)" fill="#838484" font-family="'NanumSquareEB'" font-size="12">{{ts.POWER_FACTOR}}</text>
	<text transform="matrix(1 0 0 1 884.6426 317.4045)" fill="#525252" font-family="'NanumSquareEB'" font-size="18">{{pcs_data.pf}}</text>
	<g>
		<text transform="matrix(1 0 0 1 920.0986 334.1096)" fill="#535352" font-family="'NanumSquareB'" font-size="12">PF</text>
	</g>
</g>

<!-- pcs -->
<g name="pcs" ng-click="goPCSDetail()">
	<g>
		<path fill="#FFFFFF" d="M809.401,208.975H706.013c-3.143,0-5.699,2.556-5.699,5.698v52.896c0,3.145,2.558,5.701,5.699,5.701
			h103.389c3.146,0,5.7-2.558,5.7-5.701v-52.896C815.102,211.531,812.546,208.975,809.401,208.975z"/>
		<path fill="#525252" d="M809.401,201.173H706.013c-7.442,0-13.5,6.057-13.5,13.5v52.896c0,7.445,6.058,13.5,13.5,13.5h103.389
			c7.445,0,13.5-6.055,13.5-13.5v-52.896C822.901,207.23,816.847,201.173,809.401,201.173z M815.102,267.568
			c0,3.145-2.556,5.701-5.7,5.701H706.013c-3.143,0-5.699-2.558-5.699-5.701v-52.896c0-3.143,2.558-5.698,5.699-5.698h103.389
			c3.146,0,5.7,2.556,5.7,5.698V267.568z"/>
		<path fill="#525252" d="M795.297,247.445H775.99c-1.986,0-3.601-1.611-3.601-3.601c0-1.986,1.613-3.599,3.601-3.599h19.308
			c1.99,0,3.601,1.612,3.601,3.599C798.897,245.833,797.287,247.445,795.297,247.445z"/>
		<path fill="#525252" d="M795.297,258.4H775.99c-1.986,0-3.601-1.612-3.601-3.6c0-1.991,1.613-3.6,3.601-3.6h19.308
			c1.99,0,3.601,1.608,3.601,3.6C798.897,256.787,797.287,258.4,795.297,258.4z"/>
		<path fill="#525252" d="M747.354,261.882c-0.793,0-1.59-0.26-2.255-0.797c-1.55-1.245-1.793-3.513-0.546-5.063l27.64-34.321
			c1.247-1.547,3.513-1.793,5.063-0.545c1.547,1.248,1.793,3.513,0.545,5.06l-27.64,34.324
			C749.448,261.423,748.405,261.882,747.354,261.882z"/>
		<path fill="#525252" d="M736.293,238.105c-2.092,0-4.888-0.8-7.817-3.918c-1.064-1.13-2.044-1.733-2.705-1.641
			c-0.988,0.133-2.148,1.63-2.468,2.233c-0.926,1.758-3.101,2.435-4.863,1.506c-1.758-0.926-2.432-3.103-1.506-4.863
			c0.287-0.545,2.95-5.349,7.872-6.015c2.147-0.29,5.438,0.144,8.916,3.847c1.063,1.131,2.044,1.737,2.7,1.641
			c0.99-0.132,2.154-1.632,2.473-2.235c0.926-1.758,3.105-2.434,4.863-1.506c1.758,0.929,2.433,3.107,1.506,4.865
			c-0.288,0.546-2.953,5.348-7.875,6.012C737.05,238.077,736.686,238.105,736.293,238.105z"/>
		<path fill="#525252" d="M737.304,250.38c-2.09,0-4.891-0.797-7.82-3.923c-1.055-1.125-2.041-1.729-2.692-1.641
			c-0.949,0.12-2.091,1.534-2.491,2.262c-0.95,1.734-3.129,2.391-4.869,1.453c-1.74-0.938-2.408-3.085-1.487-4.834
			c0.289-0.546,2.952-5.35,7.874-6.015c2.149-0.287,5.438,0.144,8.917,3.847c1.057,1.125,2.031,1.728,2.69,1.644
			c0.948-0.12,2.092-1.535,2.493-2.265c0.951-1.731,3.125-2.391,4.87-1.45c1.738,0.935,2.406,3.085,1.484,4.834
			c-0.288,0.545-2.953,5.35-7.875,6.015C738.062,250.351,737.694,250.38,737.304,250.38z"/>
		<path fill="#1994D2" d="M724.954,189.276c-1.868,0-3.398,1.529-3.398,3.399v8.498h15.692v-8.498c0-1.87-1.53-3.399-3.404-3.399
			H724.954z"/>
		<path fill="#1994D2" d="M781.573,189.276c-1.871,0-3.401,1.529-3.401,3.399v8.498h15.689v-8.498c0-1.87-1.53-3.399-3.4-3.399
			H781.573z"/>
	</g>
	<path fill="#88C441" ng-if="pcsAlrams_length > 0"d="M848.103,228.334c0,0.762-0.617,1.38-1.379,1.38h-14.928c-0.763,0-1.38-0.618-1.38-1.38v-14.927
		c0-0.762,0.617-1.38,1.38-1.38h14.928c0.762,0,1.379,0.618,1.379,1.38V228.334z"/>
	<path fill="#FFDD23" ng-if="pcsWarnings_length > 0"d="M848.103,248.584c0,0.765-0.617,1.38-1.379,1.38h-14.928c-0.763,0-1.38-0.615-1.38-1.38v-14.927
		c0-0.762,0.617-1.38,1.38-1.38h14.928c0.762,0,1.379,0.618,1.379,1.38V248.584z"/>
	<path fill="#E24E4E" ng-if="pcsFaluts_length > 0"d="M848.103,268.84c0,0.762-0.617,1.381-1.379,1.381h-14.928c-0.763,0-1.38-0.619-1.38-1.381v-14.93
		c0-0.762,0.617-1.38,1.38-1.38h14.928c0.762,0,1.379,0.618,1.379,1.38V268.84z"/>
	<g name="pcs_alrams" ng-if="pcsAlrams_length > 0">
		<text transform="matrix(1 0 0 1 833.6799 226.9043)" fill="#FFFFFF" font-family="'NanumSquareEB'" font-size="18">{{pcsAlrams_length}}</text>
	</g>
	<g name="pcs_warnings" ng-if="pcsWarnings_length > 0">
		<text transform="matrix(1 0 0 1 833.6799 247.1563)" fill="#FFFFFF" font-family="'NanumSquareEB'" font-size="18">{{pcsWarnings_length}}</text>
	</g>
	<g name="pcs_faults" ng-if="pcsFaluts_length > 0">
		<text transform="matrix(1 0 0 1 833.6799 267.4102)" fill="#FFFFFF" font-family="'NanumSquareEB'" font-size="18">{{pcsFaluts_length}}</text>
	</g>
</g>
	<rect x="692.513" y="281.068" fill="#FFFFFF" width="155.59" height="36.463"/>
	<!-- pcs timer -->
	<text name="pcs_syncTime" transform="matrix(1 0 0 1 735.532 307.5811)" fill="#535352" font-weight="500" font-family="'NanumSquareEB'" font-size="18">{{cdt | date:'HH:mm:ss'}}</text>

	<g name="pcs_timer">
		<circle fill="#1E94D2" cx="716.109" cy="302.691" r="1.705"/>
		<path fill="#1E94D2" d="M716.109,303.523c-0.051,0-0.104-0.006-0.154-0.014l-6.813-1.278c-0.452-0.084-0.75-0.52-0.665-0.972
			c0.082-0.451,0.521-0.751,0.97-0.665l6.816,1.277c0.452,0.084,0.75,0.521,0.663,0.973
			C716.851,303.246,716.502,303.523,716.109,303.523z"/>
		<path fill="#1E94D2" d="M716.109,303.523c-0.317,0-0.623-0.184-0.762-0.492c-0.188-0.419,0.003-0.912,0.421-1.101l8.094-3.607
			c0.421-0.188,0.91,0,1.101,0.419c0.187,0.422-0.003,0.912-0.421,1.1l-8.094,3.61C716.337,303.5,716.221,303.523,716.109,303.523z"
			/>
		<g>
			<path fill="#535352" d="M702.121,302.39c-0.021,0-0.044,0-0.063-0.002c-0.458-0.032-0.802-0.435-0.769-0.892
				c0.573-7.652,7.039-13.645,14.722-13.645c6.746,0,12.625,4.558,14.3,11.082c0.114,0.446-0.155,0.898-0.599,1.014
				c-0.447,0.111-0.899-0.154-1.015-0.6c-1.484-5.791-6.7-9.834-12.688-9.834c-6.814,0-12.553,5.316-13.062,12.106
				C702.916,302.058,702.554,302.39,702.121,302.39z"/>
			<path fill="#535352" d="M701.697,303.594c-0.052,0-0.105-0.005-0.159-0.018c-0.293-0.06-0.528-0.268-0.626-0.546l-1.343-3.937
				c-0.146-0.435,0.085-0.906,0.521-1.057c0.438-0.148,0.906,0.084,1.058,0.518l0.875,2.572l1.791-2.046
				c0.301-0.346,0.828-0.381,1.171-0.079c0.349,0.302,0.383,0.828,0.08,1.173l-2.737,3.128
				C702.166,303.492,701.937,303.594,701.697,303.594z"/>
		</g>
		<g>
			<path fill="#535352" d="M716.205,317.531c-6.744,0-12.625-4.559-14.301-11.083c-0.113-0.446,0.156-0.898,0.601-1.014
				c0.446-0.113,0.897,0.154,1.014,0.6c1.483,5.792,6.702,9.834,12.688,9.834c6.814,0,12.553-5.316,13.062-12.106
				c0.035-0.459,0.439-0.802,0.894-0.767c0.461,0.033,0.802,0.435,0.768,0.892C730.352,311.536,723.888,317.531,716.205,317.531z"/>
			<path fill="#535352" d="M731.859,307.39c-0.347,0-0.67-0.219-0.787-0.563l-0.878-2.572l-1.788,2.044
				c-0.304,0.349-0.827,0.383-1.173,0.078c-0.349-0.302-0.383-0.827-0.079-1.173l2.736-3.128c0.197-0.227,0.497-0.325,0.788-0.271
				c0.291,0.06,0.527,0.268,0.624,0.55l1.343,3.933c0.148,0.438-0.083,0.909-0.52,1.06
				C732.036,307.374,731.947,307.39,731.859,307.39z"/>
		</g>
	</g>

<!-- 전력량계 상세 -->
<g>
	<g>

			<line fill="none" stroke="#ABABAB" stroke-width="2" stroke-linecap="round" stroke-linejoin="round" x1="197.643" y1="195.317" x2="197.643" y2="195.317"/>

			<line fill="none" stroke="#ABABAB" stroke-width="2" stroke-linecap="round" stroke-linejoin="round" stroke-dasharray="0,3.1392" x1="194.503" y1="195.317" x2="174.099" y2="195.317"/>

			<line fill="none" stroke="#ABABAB" stroke-width="2" stroke-linecap="round" stroke-linejoin="round" x1="172.529" y1="195.317" x2="172.529" y2="195.317"/>
	</g>
</g>
<rect x="197.643" y="110.67" fill="#FFF7BD" width="140.639" height="113.984"/>
<text transform="matrix(1 0 0 1 211.5425 136.1218)" fill="#858585" font-family="'NanumSquareEB'" font-size="12">{{ts.TODAY_USE_POWER}}</text>
<text transform="matrix(1 0 0 1 236.207 166.0203)" fill="#525252" font-family="'NanumSquareEB'" font-size="18">{{todaye}}</text>
<text transform="matrix(1 0 0 1 300.6172 185.0203)" fill="#525252" font-family="'NanumSquareB'" font-size="12">kW</text>
<polygon fill="#E2C754" points="222.627,148.818 215.467,160.618 219.578,160.618 217.191,169.238 225.543,157.039 221.434,157.039
	"/>
<text name="ismart_syncTime" transform="matrix(1 0 0 1 236.207 202.0188)" fill="#535352" font-family="'NanumSquareEB'" font-size="18.1999">{{ismartSyncTime | date:'HH:mm:ss'}}</text>
<g>
	<circle fill="#1E94D2" cx="220.263" cy="197.129" r="1.182"/>
	<path fill="#1E94D2" d="M220.263,197.705c-0.035,0-0.071-0.003-0.107-0.009l-4.726-0.887c-0.313-0.059-0.52-0.359-0.461-0.673
		c0.057-0.313,0.362-0.521,0.672-0.461l4.727,0.886c0.313,0.059,0.521,0.361,0.46,0.674
		C220.777,197.513,220.535,197.705,220.263,197.705z"/>
	<path fill="#1E94D2" d="M220.263,197.705c-0.221,0-0.432-0.126-0.528-0.341c-0.13-0.291,0.002-0.632,0.292-0.762l5.613-2.503
		c0.292-0.13,0.631,0,0.763,0.291c0.129,0.292-0.001,0.633-0.292,0.763l-5.612,2.503C220.421,197.69,220.34,197.705,220.263,197.705
		z"/>
	<g>
		<path fill="#535352" d="M210.563,196.919c-0.015,0-0.03,0-0.044-0.001c-0.318-0.022-0.557-0.301-0.532-0.618
			c0.397-5.307,4.881-9.462,10.208-9.462c4.679,0,8.755,3.161,9.917,7.686c0.079,0.31-0.108,0.623-0.415,0.703
			c-0.311,0.077-0.624-0.107-0.703-0.416c-1.03-4.017-4.646-6.82-8.799-6.82c-4.726,0-8.705,3.688-9.057,8.396
			C211.113,196.69,210.862,196.919,210.563,196.919z"/>
		<path fill="#535352" d="M210.268,197.755c-0.036,0-0.074-0.003-0.111-0.012c-0.203-0.04-0.367-0.185-0.434-0.378l-0.932-2.729
			c-0.101-0.301,0.059-0.629,0.361-0.732c0.304-0.104,0.629,0.058,0.734,0.359l0.606,1.784l1.242-1.418
			c0.209-0.24,0.575-0.264,0.813-0.055c0.241,0.209,0.265,0.574,0.055,0.813l-1.898,2.169
			C210.593,197.684,210.434,197.755,210.268,197.755z"/>
	</g>
	<g>
		<path fill="#535352" d="M220.33,207.42c-4.678,0-8.756-3.161-9.918-7.687c-0.079-0.31,0.108-0.623,0.416-0.703
			c0.311-0.079,0.623,0.107,0.703,0.416c1.029,4.017,4.648,6.819,8.799,6.819c4.725,0,8.705-3.687,9.057-8.395
			c0.024-0.318,0.306-0.556,0.62-0.532c0.32,0.022,0.557,0.301,0.532,0.618C230.14,203.263,225.657,207.42,220.33,207.42z"/>
		<path fill="#535352" d="M231.186,200.388c-0.24,0-0.465-0.152-0.546-0.392l-0.609-1.784l-1.24,1.417
			c-0.21,0.241-0.573,0.265-0.813,0.054c-0.242-0.209-0.266-0.574-0.055-0.813l1.897-2.169c0.137-0.157,0.345-0.226,0.547-0.187
			c0.202,0.04,0.365,0.185,0.433,0.381l0.932,2.727c0.103,0.303-0.058,0.63-0.36,0.734
			C231.309,200.377,231.247,200.388,231.186,200.388z"/>
	</g>
</g>
<!-- 전력량계 -->
<g name="gridKW">
	<g>
		<circle fill="#FFFFFF" cx="151.994" cy="192.535" r="19.321"/>
		<path fill="#545453" d="M151.994,212.856c-11.205,0-20.321-9.116-20.321-20.321s9.116-20.321,20.321-20.321
			c11.205,0,20.32,9.116,20.32,20.321S163.199,212.856,151.994,212.856z M151.994,174.214c-10.103,0-18.321,8.219-18.321,18.321
			c0,10.102,8.219,18.321,18.321,18.321c10.102,0,18.32-8.219,18.32-18.321C170.315,182.433,162.096,174.214,151.994,174.214z"/>
	</g>
	<g>
		<path fill="#FFFFFF" d="M168.071,192.535c0-8.88-7.197-16.078-16.077-16.078s-16.077,7.198-16.077,16.078
			c0,1.598,0.241,3.137,0.675,4.594h30.805C167.831,195.672,168.071,194.133,168.071,192.535z"/>
		<path fill="#545453" d="M168.14,198.129h-32.295l-0.213-0.715c-0.475-1.597-0.716-3.239-0.716-4.879
			c0-9.417,7.661-17.078,17.077-17.078s17.077,7.661,17.077,17.078c0,1.647-0.241,3.289-0.717,4.88L168.14,198.129z
			 M137.355,196.129h29.277c0.291-1.18,0.438-2.385,0.438-3.594c0-8.314-6.764-15.078-15.077-15.078s-15.077,6.764-15.077,15.078
			C136.916,193.739,137.064,194.945,137.355,196.129z"/>
	</g>
	<path fill="#1E94D2" d="M164.692,192.535h-1c0-6.45-5.248-11.698-11.697-11.698c-6.45,0-11.698,5.248-11.698,11.698h-1
		c0-7.002,5.696-12.698,12.698-12.698C158.996,179.837,164.692,185.533,164.692,192.535z"/>
	<polygon fill="#1E94D2" points="154.107,183.149 146.947,194.95 151.058,194.95 148.671,203.569 157.024,191.371 152.914,191.371
		"/>
</g>
</svg>
