<?xml version="1.0" encoding="utf-8"?>
<!-- Generator: Adobe Illustrator 16.0.0, SVG Export Plug-In . SVG Version: 6.00 Build 0)  -->
<!DOCTYPE svg PUBLIC "-//W3C//DTD SVG 1.1//EN" "http://www.w3.org/Graphics/SVG/1.1/DTD/svg11.dtd">
<svg version="1.1" id="Layer_1" xmlns="http://www.w3.org/2000/svg" xmlns:xlink="http://www.w3.org/1999/xlink" x="0px" y="0px"
	 width="566.93px" height="283.46px" viewBox="0 0 566.93 283.46" enable-background="new 0 0 566.93 283.46" xml:space="preserve">
<line name="flow1" fill="none" stroke="{{ flow1 }}" stroke-width="4" stroke-linejoin="round" stroke-miterlimit="10" x1="101.817" y1="100.689" x2="101.817" y2="211.182"/> 
<line name="flow2" fill="none" stroke="#8E8E8E" stroke-width="4" stroke-linejoin="round" stroke-miterlimit="10" x1="320" y1="133.5" x2="102.782" y2="133.5"/>
<polyline name="flow3" fill="none" stroke="#8E8E8E" stroke-width="4" stroke-linejoin="round" stroke-miterlimit="10" points="340.634,211.182 
	320,211.182 320,70.203 377.302,70.203 "/>
<polyline name="gridToBatteryFlow" fill="none" stroke="none" stroke-width="4" stroke-linejoin="round" stroke-miterlimit="10" points="101.817,100.689 
	101.817,133.5 320,133.5 320,211.182 340.634,211.182 "/>
<!--<line name="gridToFactoryFlow" fill="none" stroke="#F37321" stroke-width="4" stroke-linejoin="round" stroke-miterlimit="10" x1="101.817" y1="100.689" x2="101.817" y2="211.182"/>-->
<!--stroke="#F37321" -->
<g name="grid">
	<path name="gridHighline" fill="#525252" d="M118.285,37.628H84.486c-1.077,0-1.95-0.873-1.95-1.95s0.873-1.95,1.95-1.95h33.799
		c1.077,0,1.95,0.873,1.95,1.95S119.362,37.628,118.285,37.628z"/>\
	<path name="gridLowline" fill="#525252" d="M120.031,52.418H82.74c-1.077,0-1.95-0.873-1.95-1.95c0-1.077,0.873-1.95,1.95-1.95h37.291
		c1.077,0,1.95,0.873,1.95,1.95C121.981,51.545,121.108,52.418,120.031,52.418z"/>
	<path name="gridHighhead" fill="#525252" d="M111.285,37.628h-19.8c-0.751,0-1.436-0.432-1.759-1.109c-0.324-0.678-0.229-1.482,0.242-2.066l9.9-12.257
		c0.37-0.458,0.928-0.725,1.517-0.725l0,0c0.589,0,1.146,0.267,1.517,0.725l9.9,12.257c0.472,0.584,0.566,1.388,0.242,2.066
		C112.721,37.196,112.036,37.628,111.285,37.628z M95.567,33.728h11.637l-5.818-7.203L95.567,33.728z"/>
	<path name="gridLowhead" fill="#525252" d="M112.309,52.418H90.463c-0.736,0-1.409-0.415-1.741-1.072c-0.331-0.657-0.265-1.445,0.173-2.037
		l10.923-14.79c0.367-0.498,0.949-0.792,1.568-0.792s1.201,0.294,1.568,0.792l10.923,14.79c0.438,0.592,0.504,1.38,0.172,2.037
		C113.718,52.003,113.044,52.418,112.309,52.418z M94.327,48.518h14.117l-7.059-9.558L94.327,48.518z"/>
	<path name="gridLowedge" fill="#525252" d="M120.031,101.734H82.74c-0.579,0-1.128-0.257-1.498-0.702c-0.371-0.444-0.524-1.031-0.42-1.6l9.058-49.316
		c0.17-0.926,0.977-1.598,1.918-1.598h19.176c0.941,0,1.748,0.672,1.918,1.598l9.058,49.316c0.104,0.569-0.05,1.156-0.42,1.6
		C121.159,101.478,120.61,101.734,120.031,101.734z M85.081,97.834h32.609l-8.341-45.417H93.422L85.081,97.834z"/>
	<path name="gridLeft1" fill="#525252" d="M112.583,65.607c-0.348,0-0.699-0.093-1.017-0.287L90.031,52.131c-0.919-0.563-1.207-1.763-0.645-2.681
		c0.563-0.919,1.763-1.207,2.681-0.645l21.536,13.188c0.919,0.563,1.207,1.763,0.645,2.682
		C113.88,65.276,113.239,65.607,112.583,65.607z"/>
	<path name="gridRight1" fill="#525252" d="M90.188,65.607c-0.656,0-1.297-0.331-1.665-0.932c-0.563-0.918-0.273-2.119,0.645-2.682l21.535-13.188
		c0.918-0.562,2.119-0.274,2.682,0.645c0.563,0.918,0.274,2.119-0.645,2.681L91.205,65.32
		C90.887,65.514,90.535,65.607,90.188,65.607z"/>
	<path name="gridLeft2" fill="#525252" d="M115.417,82.699c-0.365,0-0.734-0.102-1.063-0.316L89.081,65.917c-0.902-0.588-1.157-1.796-0.569-2.698
		s1.797-1.158,2.698-0.569l25.273,16.465c0.902,0.588,1.157,1.796,0.568,2.698C116.679,82.387,116.055,82.699,115.417,82.699z"/>	
	<path name="gridRight2" fill="#525252" d="M87.354,82.699c-0.638,0-1.262-0.312-1.636-0.886c-0.588-0.902-0.333-2.11,0.569-2.698l25.273-16.465
		c0.902-0.589,2.109-0.333,2.698,0.569c0.588,0.902,0.333,2.11-0.569,2.698L88.417,82.382C88.089,82.597,87.72,82.699,87.354,82.699
		z"/>
	<path name="gridLeft3" fill="#525252" d="M120.029,101.735c-0.333,0-0.671-0.086-0.979-0.266L86.371,82.434c-0.931-0.542-1.246-1.736-0.703-2.667
		c0.542-0.931,1.735-1.245,2.666-0.704l32.679,19.036c0.931,0.542,1.245,1.736,0.703,2.667
		C121.354,101.388,120.7,101.735,120.029,101.735z"/>
	<path name="gridRight3" fill="#525252" d="M82.742,101.735c-0.672,0-1.325-0.348-1.688-0.969c-0.542-0.931-0.227-2.125,0.704-2.667l32.679-19.036
		c0.93-0.542,2.123-0.227,2.666,0.704c0.542,0.931,0.227,2.125-0.703,2.667L83.722,101.47
		C83.413,101.649,83.075,101.735,82.742,101.735z"/>
	<polygon name="gridLeftStar" fill="#F37321" points="75.486,48.262 66.981,62.279 71.863,62.279 69.028,72.516 78.951,58.026 74.068,58.026 	"/>
	<polygon name="gridRightStar" fill="#F37321" points="128.72,34.024 123.82,42.1 126.634,42.1 125,47.998 130.716,39.65 127.903,39.65 	"/> 
</g>
<g name="factory">
	<g name="factoryEdge">
		<path name="bodyEdge" fill="#525252" d="M118.281,241.484H71.117c-1.077,0-1.95-0.873-1.95-1.95v-19.802c0-0.684,0.358-1.316,0.943-1.67
			l16.08-9.695c0.604-0.363,1.354-0.375,1.966-0.029s0.991,0.996,0.991,1.699v5.918l12.585-7.588
			c0.603-0.363,1.354-0.375,1.966-0.029s0.991,0.996,0.991,1.699v5.918l12.585-7.588c0.602-0.363,1.354-0.375,1.966-0.029
			s0.991,0.996,0.991,1.699v29.497C120.231,240.611,119.358,241.484,118.281,241.484z M73.067,237.584h43.264v-24.095l-12.585,7.588
			c-0.602,0.363-1.353,0.374-1.966,0.028c-0.612-0.346-0.991-0.995-0.991-1.698v-5.918l-12.584,7.588
			c-0.603,0.363-1.354,0.374-1.966,0.028s-0.991-0.995-0.991-1.698v-5.918l-12.181,7.345V237.584z"/>
		<path name="smokeStackEdge" fill="#525252" d="M126.58,241.484h-8.299c-1.077,0-1.95-0.873-1.95-1.95v-38.536c0-1.076,0.873-1.949,1.95-1.949h8.299
			c1.077,0,1.95,0.873,1.95,1.949v38.536C128.53,240.611,127.657,241.484,126.58,241.484z M120.231,237.584h4.398v-34.636h-4.398
			V237.584z"/>
		<path name="smoke" fill="#525252" d="M125.026,198.823c-1.13,0-2.245-0.36-3.166-1.043c-1.383,0.66-2.942,0.77-4.412,0.308
			c-1.541-0.485-2.801-1.541-3.548-2.973c-0.584-1.121-0.793-2.37-0.635-3.579c-2.926-0.11-5.672-1.767-7.085-4.477
			c-2.126-4.076-0.539-9.122,3.538-11.249c1.975-1.029,4.232-1.229,6.357-0.56c1.677,0.526,3.112,1.545,4.149,2.921
			c3.799-1.234,8.057,0.42,9.964,4.078l0,0c1.458,2.798,1.202,6.129-0.574,8.65c0.034,0.06,0.067,0.12,0.099,0.182
			c0.654,1.253,0.781,2.688,0.356,4.037c-0.425,1.348-1.35,2.452-2.604,3.105C126.693,198.628,125.855,198.823,125.026,198.823z
			 M122.058,194.396c0.442,0,0.879,0.192,1.175,0.564c0.681,0.852,1.875,1.104,2.844,0.6c0.542-0.283,0.941-0.76,1.125-1.343
			c0.183-0.584,0.129-1.203-0.153-1.745c-0.108-0.207-0.246-0.395-0.408-0.559c-0.577-0.581-0.583-1.516-0.014-2.104
			c1.598-1.652,1.959-4.132,0.897-6.169c-1.359-2.605-4.586-3.621-7.193-2.262c-0.737,0.384-1.645,0.098-2.029-0.639
			c-0.659-1.263-1.769-2.193-3.127-2.62c-1.36-0.428-2.803-0.301-4.064,0.358c-2.607,1.359-3.623,4.586-2.263,7.192
			c1.176,2.256,3.799,3.37,6.236,2.646c0.61-0.18,1.267,0.042,1.642,0.555c0.374,0.514,0.386,1.208,0.028,1.733
			c-0.633,0.93-0.705,2.125-0.186,3.12c0.375,0.721,1.009,1.251,1.784,1.495c0.774,0.243,1.598,0.17,2.318-0.205
			c0.156-0.081,0.308-0.18,0.464-0.302C121.408,194.499,121.734,194.396,122.058,194.396z"/>
	</g>
	<path name="factoryWindow1" fill="#F37321" d="M82.906,229.764h-5.7c-0.331,0-0.6-0.27-0.6-0.601v-3.101c0-0.33,0.269-0.6,0.6-0.6h5.7
		c0.331,0,0.601,0.27,0.601,0.6v3.101C83.507,229.494,83.237,229.764,82.906,229.764z"/>
	<path name="factoryWindow2" fill="#F37321" d="M97.549,229.764h-5.7c-0.331,0-0.6-0.27-0.6-0.601v-3.101c0-0.33,0.269-0.6,0.6-0.6h5.7
		c0.332,0,0.601,0.27,0.601,0.6v3.101C98.149,229.494,97.881,229.764,97.549,229.764z"/>
	<path name="factoryWindow3" fill="#F37321" d="M112.191,229.764h-5.7c-0.331,0-0.6-0.27-0.6-0.601v-3.101c0-0.33,0.269-0.6,0.6-0.6h5.7
		c0.332,0,0.601,0.27,0.601,0.6v3.101C112.792,229.494,112.523,229.764,112.191,229.764z"/>
	<path name="smokeStackLine" fill="#525252" d="M126.207,207.713h-7.926c-1.077,0-1.95-0.873-1.95-1.949c0-1.078,0.873-1.951,1.95-1.951h7.926
		c1.076,0,1.949,0.873,1.949,1.951C128.156,206.84,127.283,207.713,126.207,207.713z"/>
</g>
<g name="pv">
	<path name="pvStripe" fill="#F37321" d="M406.652,51.653h-11.855l-0.764-3.976h10.641c0.828,0,1.5-0.671,1.5-1.5s-0.672-1.5-1.5-1.5h-11.217
		l-0.584-3.042h10.086c0.83,0,1.5-0.671,1.5-1.5c0-0.829-0.67-1.5-1.5-1.5h-10.662l-0.875-4.555
		c-0.156-0.813-0.939-1.344-1.757-1.19c-0.813,0.156-1.347,0.943-1.189,1.756l0.767,3.989h-8.526l-0.007-4.274
		c0-0.828-0.672-1.497-1.5-1.497h-0.002c-0.828,0-1.498,0.673-1.498,1.501l0.007,4.27h-8.527l0.755-3.993
		c0.154-0.814-0.381-1.599-1.195-1.752c-0.809-0.158-1.598,0.381-1.752,1.195l-0.859,4.55h-10.922c-0.829,0-1.5,0.671-1.5,1.5
		c0,0.829,0.671,1.5,1.5,1.5h10.354l-0.575,3.042H353.5c-0.828,0-1.5,0.671-1.5,1.5s0.672,1.5,1.5,1.5h10.928l-0.752,3.976h-12.154
		c-0.828,0-1.5,0.671-1.5,1.5s0.672,1.5,1.5,1.5h11.588l-1.329,7.032c-0.155,0.814,0.381,1.599,1.195,1.752
		c0.094,0.019,0.188,0.027,0.28,0.027c0.707,0,1.336-0.502,1.472-1.223l1.435-7.588h11.578l0.012,7.313
		c0.001,0.828,0.672,1.499,1.5,1.499h0.002c0.828-0.002,1.499-0.675,1.498-1.503l-0.012-7.308h11.578l1.459,7.593
		c0.138,0.718,0.766,1.218,1.471,1.218c0.094,0,0.189-0.01,0.285-0.028c0.813-0.156,1.347-0.943,1.189-1.756l-1.35-7.027h11.279
		c0.828,0,1.5-0.671,1.5-1.5S407.48,51.653,406.652,51.653z M389.818,41.635l0.584,3.042h-9.678l-0.004-3.042H389.818z
		 M368.622,41.635h9.099l0.004,3.042h-9.678L368.622,41.635z M366.729,51.653l0.752-3.976h10.249l0.007,3.976H366.729z
		 M380.736,51.653l-0.007-3.976h10.249l0.764,3.976H380.736z"/>
	<path name="pvHeadEdge" fill="#525252" d="M409.15,63.913h-60.127c-0.611,0-1.188-0.287-1.557-0.774c-0.367-0.488-0.486-1.12-0.32-1.708l7.828-27.6
		c0.237-0.839,1.004-1.418,1.875-1.418h44.473c0.873,0,1.639,0.579,1.877,1.418l7.828,27.6c0.166,0.587,0.047,1.22-0.322,1.708
		C410.338,63.626,409.762,63.913,409.15,63.913z M351.603,60.013h54.968l-6.723-23.7h-41.523L351.603,60.013z"/>
	<path name="pvColumn" fill="#525252" d="M379.252,80.394c-1.077,0-1.95-0.873-1.95-1.95V61.963c0-1.077,0.873-1.95,1.95-1.95
		c1.076,0,1.949,0.873,1.949,1.95v16.481C381.201,79.521,380.328,80.394,379.252,80.394z"/>
	<path name="pvBottom1" fill="#525252" d="M396.634,85.593h-35.095c-1.077,0-1.95-0.873-1.95-1.95v-5.2c0-1.077,0.873-1.95,1.95-1.95h35.095
		c1.077,0,1.95,0.873,1.95,1.95v5.2C398.584,84.72,397.711,85.593,396.634,85.593z M363.488,81.693h31.195v-1.3h-31.195V81.693z"/>
	<path name="pvBottom2" fill="#525252" d="M406.652,90.793h-55.131c-1.076,0-1.949-0.873-1.949-1.95v-5.2c0-1.077,0.873-1.95,1.949-1.95h55.131
		c1.076,0,1.949,0.873,1.949,1.95v5.2C408.602,89.92,407.729,90.793,406.652,90.793z M353.472,86.894h51.231v-1.3h-51.231V86.894z"
		/>
</g>
<polygon name="pcsStarLow" fill="#F37321" points="282.228,98.489 273.724,112.506 278.605,112.506 275.771,122.744 285.693,108.254 280.811,108.254 
	"/>
<polygon name="pcsStarHigh" fill="#F37321" points="275.052,86.186 270.569,93.576 273.143,93.576 271.648,98.973 276.879,91.334 274.306,91.334 "/>
<g name="battery">
	<g>
		<path name="batteryEdge" fill="#525252" d="M402.46,229.764h-51.188c-3.138,0-5.69-2.553-5.69-5.691v-2.91H345c-2.407,0-4.366-1.959-4.366-4.366
			v-14.455c0-2.408,1.959-4.367,4.366-4.367h0.581v-2.909c0-3.139,2.553-5.692,5.69-5.692h51.188c3.139,0,5.692,2.554,5.692,5.692
			v29.008C408.152,227.211,405.599,229.764,402.46,229.764z M345,201.974c-0.198,0-0.366,0.168-0.366,0.367v14.455
			c0,0.198,0.168,0.366,0.366,0.366h2.581c1.104,0,2,0.896,2,2v4.91c0,0.933,0.759,1.691,1.69,1.691h51.188
			c0.934,0,1.692-0.759,1.692-1.691v-29.008c0-0.934-0.759-1.692-1.692-1.692h-51.188c-0.932,0-1.69,0.759-1.69,1.692v4.909
			c0,1.104-0.896,2-2,2H345z"/>
	</g>
	<!-- 11.852 / 5.926 -->
	<g name="batteryGauge1">
		<rect x="394.975" y="196.93" fill="#F37321" width="5" height="25.277"/>
	</g>
	<g name="batteryGauge2">
		<rect x="389.049" y="196.93" fill="#F37321" width="5" height="25.277"/>
	</g>
	<g name="batteryGauge3">
		<rect x="383.123" y="196.93" fill="#F37321" width="5" height="25.277"/>
	</g>
	<g name="batteryGauge4">
		<rect x="377.197" y="196.93" fill="#F37321" width="5" height="25.277"/>
	</g>
	<g name="batteryGauge5">
		<rect x="371.271" y="196.93" fill="#F37321" width="5" height="25.277"/>
	</g>
	<g name="batteryGauge6">
		<rect x="365.345" y="196.93" fill="#F37321" width="5" height="25.277"/>
	</g>
	<g name="batteryGauge7">
		<rect x="359.419" y="196.93" fill="#F37321" width="5" height="25.277"/>
	</g>
	<g name="batteryGauge8">
		<rect x="353.493" y="196.93" fill="#F37321" width="5" height="25.277"/>
	</g>
</g>
<g name="pcs">
	<path fill="#F37321" d="M223.511,94.965h-0.445c-2.043,0-3.699,1.657-3.699,3.7v7.75h7.844v-7.75
	C227.21,96.622,225.555,94.965,223.511,94.965z"/>
	<path fill="#F37321" d="M251.818,94.965h-0.445c-2.043,0-3.699,1.657-3.699,3.7v7.75h7.846v-7.75
	C255.519,96.622,253.862,94.965,251.818,94.965z"/>
	<path fill="#FFFFFF" d="M211.595,151.748h51.693c1.572,0,2.851-1.277,2.851-2.85v-26.446c0-1.571-1.278-2.85-2.851-2.85h-51.693
	c-1.571,0-2.85,1.279-2.85,2.85v26.446C208.746,150.471,210.024,151.748,211.595,151.748z"/>
	<path fill="#525252" d="M204.845,122.453v26.446c0,3.723,3.028,6.75,6.75,6.75h51.693c3.723,0,6.75-3.027,6.75-6.75v-26.446
	c0-3.722-3.027-6.75-6.75-6.75h-51.693C207.874,115.703,204.845,118.731,204.845,122.453z M208.746,122.453
	c0-1.571,1.278-2.85,2.85-2.85h51.693c1.572,0,2.851,1.279,2.851,2.85v26.446c0,1.572-1.278,2.85-2.851,2.85h-51.693
	c-1.571,0-2.85-1.277-2.85-2.85V122.453z"/>
	<path fill="#525252" d="M262.136,119.603h-49.389c-1.076,0-1.949-0.873-1.949-1.95v-9.188c0-2.206,1.793-4,3.999-4h45.29
	c2.205,0,3.999,1.794,3.999,4v9.188C264.086,118.729,263.213,119.603,262.136,119.603z M214.698,115.703h45.489v-7.238
	c0-0.055-0.045-0.1-0.1-0.1h-45.29c-0.056,0-0.1,0.045-0.1,0.1V115.703z"/>
</g>
</svg>
